<svg width="18" height="18" viewBox="0 0 18 18" fill="none" xmlns="http://www.w3.org/2000/svg">
<path d="M12.5298 5.46968L9.52982 2.46968C9.38917 2.32908 9.19844 2.25009 8.99957 2.25009C8.80069 2.25009 8.60996 2.32908 8.46932 2.46968L5.46932 5.46968C5.3327 5.61113 5.25711 5.80058 5.25882 5.99723C5.26053 6.19388 5.3394 6.38199 5.47846 6.52105C5.61751 6.6601 5.80562 6.73898 6.00227 6.74069C6.19892 6.7424 6.38837 6.6668 6.52982 6.53018L8.99957 4.06043L11.4693 6.53018C11.6108 6.6668 11.8002 6.7424 11.9969 6.74069C12.1935 6.73898 12.3816 6.6601 12.5207 6.52105C12.6597 6.38199 12.7386 6.19388 12.7403 5.99723C12.742 5.80058 12.6664 5.61113 12.5298 5.46968Z" fill="#7C7882"/>
<path d="M11.4692 11.4698L8.99944 13.9395L6.5297 11.4698C6.46051 11.3981 6.37775 11.341 6.28625 11.3017C6.19475 11.2624 6.09633 11.2417 5.99675 11.2408C5.89717 11.24 5.79841 11.259 5.70623 11.2967C5.61406 11.3344 5.53032 11.3901 5.4599 11.4605C5.38948 11.5309 5.33379 11.6146 5.29608 11.7068C5.25837 11.799 5.2394 11.8977 5.24026 11.9973C5.24113 12.0969 5.26182 12.1953 5.30112 12.2868C5.34043 12.3783 5.39757 12.4611 5.4692 12.5303L8.4692 15.5303C8.60984 15.6709 8.80057 15.7499 8.99944 15.7499C9.19832 15.7499 9.38905 15.6709 9.52969 15.5303L12.5297 12.5303C12.6663 12.3888 12.7419 12.1994 12.7402 12.0027C12.7385 11.8061 12.6596 11.618 12.5206 11.4789C12.3815 11.3399 12.1934 11.261 11.9967 11.2593C11.8001 11.2576 11.6106 11.3332 11.4692 11.4698Z" fill="#7C7882"/>
</svg>
