<svg width="24" height="24" viewBox="0 0 24 24" fill="none" xmlns="http://www.w3.org/2000/svg">
<path d="M17.5333 20.3337H6.46642C4.9366 20.3323 3.46783 19.7335 2.37311 18.6649C1.27838 17.5963 0.644254 16.1424 0.605855 14.613C0.567456 13.0837 1.12782 11.5998 2.16754 10.4776C3.20726 9.35545 4.64412 8.68366 6.17194 8.60543C6.4011 7.22536 7.11262 5.97141 8.17979 5.06683C9.24696 4.16226 10.6005 3.66577 11.9995 3.66577C13.3985 3.66577 14.752 4.16226 15.8192 5.06683C16.8864 5.97141 17.5979 7.22536 17.8271 8.60543C19.3565 8.68126 20.7957 9.352 21.8374 10.4744C22.8791 11.5969 23.4407 13.0821 23.4024 14.6129C23.3641 16.1438 22.7288 17.599 21.6322 18.6679C20.5356 19.7367 19.0646 20.3346 17.5333 20.3337ZM6.46642 10.5521C5.42844 10.5521 4.43298 10.9644 3.69903 11.6984C2.96507 12.4323 2.55274 13.4278 2.55274 14.4657C2.55274 15.5037 2.96507 16.4992 3.69903 17.2331C4.43298 17.9671 5.42844 18.3794 6.46642 18.3794H17.5333C18.5713 18.3794 19.5667 17.9671 20.3007 17.2331C21.0346 16.4992 21.447 15.5037 21.447 14.4657C21.447 13.4278 21.0346 12.4323 20.3007 11.6984C19.5667 10.9644 18.5713 10.5521 17.5333 10.5521H16.9302C16.6712 10.552 16.4229 10.4492 16.2397 10.2662C16.0565 10.0832 15.9535 9.83493 15.9531 9.57599C15.9531 9.05684 15.8509 8.54277 15.6522 8.06314C15.4535 7.5835 15.1623 7.14769 14.7952 6.7806C14.4282 6.4135 13.9923 6.12231 13.5127 5.92364C13.0331 5.72496 12.519 5.62271 11.9999 5.62271C11.4807 5.62271 10.9666 5.72496 10.487 5.92364C10.0074 6.12231 9.57156 6.4135 9.20446 6.7806C8.83737 7.14769 8.54617 7.5835 8.3475 8.06314C8.14883 8.54277 8.04658 9.05684 8.04658 9.57599C8.04658 9.83514 7.94365 10.0837 7.76042 10.2669C7.5772 10.4502 7.32868 10.5532 7.06954 10.5533L6.46642 10.5521Z" fill="white"/>
<path d="M14.3227 12.7229L12.977 13.7726V8.20801H11.0229V13.7726L9.67725 12.7229L8.47485 14.2651L11.3988 16.5451C11.5708 16.6786 11.7823 16.751 12 16.751C12.2177 16.751 12.4292 16.6786 12.6012 16.5451L15.5251 14.2651L14.3227 12.7229Z" fill="white"/>
</svg>
