<svg width="20" height="20" viewBox="0 0 20 20" fill="none" xmlns="http://www.w3.org/2000/svg">
<path d="M20 3.8725L14.1163 0L10 3.46375L15.9325 7.155L20 3.8725Z" fill="#1E88E5"/>
<path d="M5.88375 0L0 3.87125L4.06875 7.155L10 3.46375L5.88375 0Z" fill="#1E88E5"/>
<path d="M10 10.8475L5.88375 14.3112L0 10.4387L4.0675 7.155L10 10.8475L15.9312 7.155L20 10.4387L14.1163 14.3112L10 10.8475Z" fill="#1E88E5"/>
<path d="M14.4137 15.6113C14.31 15.68 14.19 15.7138 14.0712 15.7138C13.9275 15.7138 13.785 15.6638 13.6688 15.5675L10 12.48L6.33125 15.5675C6.12 15.745 5.81625 15.7625 5.585 15.6113L3.75 14.4038V16.25L10.0125 20L16.25 16.25V14.4025L14.4137 15.6113Z" fill="#1E88E5"/>
</svg>
