<svg width="14" height="16" viewBox="0 0 14 16" fill="none" xmlns="http://www.w3.org/2000/svg">
<path d="M12.8605 2.59097H9.55209V2.54928C9.55212 1.14359 8.40849 0 7.00284 0H6.99734C5.59168 0 4.44805 1.14359 4.44805 2.54928V2.59097H1.13965C0.794461 2.59097 0.514648 2.87078 0.514648 3.21597C0.514648 3.56116 0.794461 3.84097 1.13965 3.84097H1.34218L1.86074 13.6322C1.93105 14.9599 3.02762 16 4.35724 16H9.64296C10.9726 16 12.0691 14.9599 12.1394 13.6326L12.1397 13.6272C12.1581 13.2825 11.8937 12.9881 11.549 12.9697C11.2043 12.9514 10.91 13.2157 10.8915 13.5603L10.8912 13.5661C10.8561 14.23 10.3077 14.75 9.64293 14.75H4.35724C3.69246 14.75 3.14415 14.23 3.10899 13.5661L2.59396 3.84097H11.4062L11.0553 10.4669C11.0371 10.8116 11.3017 11.1058 11.6464 11.1241C11.9906 11.1423 12.2853 10.8778 12.3036 10.533L12.658 3.84097H12.8606C13.2057 3.84097 13.4856 3.56116 13.4856 3.21597C13.4856 2.87078 13.2057 2.59097 12.8605 2.59097ZM5.69805 2.59097V2.54928C5.69805 1.83288 6.2809 1.25 6.99734 1.25H7.00284C7.71924 1.25 8.30212 1.83284 8.30212 2.54928V2.59097H5.69805Z" fill="#EA1C4F"/>
</svg>
