<svg width="20" height="20" viewBox="0 0 20 20" fill="none" xmlns="http://www.w3.org/2000/svg">
<path d="M11.3808 15.4629C10.2851 15.4629 9.25511 15.0363 8.48043 14.2615C8.1753 13.9564 8.1753 13.4617 8.48043 13.1566L13.1762 8.46091C13.3227 8.31442 13.5215 8.23207 13.7287 8.23207C13.9359 8.23207 14.1346 8.31438 14.2811 8.46091C15.8803 10.0601 15.8803 12.6623 14.2811 14.2616C13.5064 15.0363 12.4764 15.4629 11.3808 15.4629ZM10.2239 13.623C10.5776 13.8043 10.9718 13.9004 11.3808 13.9004C12.059 13.9004 12.6966 13.6362 13.1762 13.1567C13.9736 12.3593 14.1288 11.1593 13.6417 10.2052L10.2239 13.623ZM17.6469 8.59189C17.0449 8.59193 16.443 8.36407 15.9847 7.90831L14.0583 5.99278C13.8797 5.81519 13.7977 5.56245 13.8379 5.31385C13.8782 5.06525 14.0358 4.8513 14.2613 4.73918C14.2947 4.72258 15.0898 4.33003 16.0507 4.09115C17.5141 3.72739 18.6105 3.89525 19.3092 4.59004C19.7546 5.03294 20 5.62214 20 6.24915C20 6.87617 19.7546 7.46537 19.3092 7.90831C18.851 8.36399 18.2489 8.59185 17.6469 8.59189ZM16.0069 5.72679L17.0865 6.8003C17.3956 7.1077 17.8984 7.10766 18.2075 6.8003C18.3558 6.65284 18.4374 6.45713 18.4374 6.24919C18.4374 6.04126 18.3558 5.84555 18.2075 5.69808C17.9377 5.42987 17.2974 5.39479 16.4506 5.60191C16.2973 5.63941 16.148 5.68218 16.0069 5.72679ZM2.54859 15.4869C2.91622 15.261 3.03107 14.7798 2.80512 14.4122C0.754275 11.0752 1.25925 6.80718 4.03321 4.03322C6.80713 1.25926 11.0752 0.754284 14.4122 2.80513C14.7799 3.03108 15.261 2.91619 15.4869 2.5486C15.7129 2.18097 15.598 1.69982 15.2304 1.47388C13.3477 0.316848 11.0946 -0.184848 8.8865 0.0610972C7.78283 0.18407 6.71643 0.486502 5.71694 0.959955C4.68273 1.44993 3.74449 2.11218 2.92833 2.92834C2.11217 3.7445 1.44992 4.68273 0.959985 5.71695C0.486493 6.7164 0.1841 7.7828 0.061127 8.88647C-0.184897 11.0947 0.316839 13.3477 1.47391 15.2304C1.62145 15.4704 1.87775 15.6027 2.1403 15.6027C2.27976 15.6027 2.42105 15.5653 2.54859 15.4869ZM10.3457 19.994C12.885 19.9066 15.2734 18.8685 17.071 17.071C18.8685 15.2734 19.9066 12.885 19.9941 10.3457C20.0089 9.91447 19.6714 9.5529 19.2401 9.53801C18.8094 9.52348 18.4473 9.86072 18.4324 10.2919C18.3587 12.4343 17.4828 14.4494 15.9661 15.966C14.4494 17.4828 12.4343 18.3587 10.292 18.4324C9.86079 18.4473 9.52324 18.8089 9.53808 19.2401C9.55262 19.6622 9.89935 19.9945 10.3184 19.9945C10.3274 19.9945 10.3366 19.9943 10.3457 19.994ZM6.32731 20C6.32727 20 6.32731 20 6.32731 20C5.7003 19.9999 5.1111 19.7546 4.66819 19.3092C3.97337 18.6104 3.80551 17.5141 4.16931 16.0507C4.40819 15.0898 4.80074 14.2947 4.81734 14.2613C4.92945 14.0358 5.14341 13.8782 5.39201 13.8379C5.64057 13.7977 5.89335 13.8797 6.07094 14.0582L7.98651 15.9846C8.89795 16.9013 8.89795 18.3926 7.98651 19.3092C7.54353 19.7546 6.95425 20 6.32731 20ZM5.80491 16.0069C5.7603 16.148 5.71753 16.2973 5.68003 16.4506C5.47295 17.2974 5.50799 17.9377 5.77616 18.2074C5.92363 18.3558 6.11934 18.4374 6.32727 18.4374C6.53521 18.4374 6.73092 18.3558 6.87839 18.2074C7.18574 17.8984 7.18574 17.3955 6.87839 17.0865L5.80491 16.0069ZM10.8611 8.05285L12.8955 6.02106C13.2008 5.71617 13.2012 5.22146 12.8963 4.91618C12.5914 4.61086 12.0967 4.61051 11.7914 4.91544L10.6921 6.01329L10.4376 5.13388C10.3177 4.71942 9.88458 4.48058 9.47 4.60054C9.05553 4.72047 8.81673 5.15373 8.9367 5.56819L9.55855 7.71717C9.63535 7.98253 9.84657 8.18762 10.1141 8.25656C10.1786 8.2732 10.244 8.28129 10.309 8.28129C10.5134 8.28133 10.7127 8.20098 10.8611 8.05285ZM5.90292 12.9747L7.89518 10.9865C8.09179 10.7904 8.16945 10.5045 8.09917 10.2358C8.02889 9.96713 7.82127 9.75591 7.5538 9.6811L5.44435 9.09101C5.02891 8.97487 4.59772 9.21738 4.48147 9.63294C4.36522 10.0485 4.60784 10.4796 5.0234 10.5958L5.84448 10.8255L4.79921 11.8686C4.49381 12.1734 4.49327 12.6681 4.79808 12.9735C4.9507 13.1264 5.15087 13.2029 5.35111 13.2029C5.55072 13.2029 5.75042 13.1268 5.90292 12.9747Z" fill="#EA1C4F"/>
</svg>
