<svg width="16" height="16" viewBox="0 0 16 16" fill="none" xmlns="http://www.w3.org/2000/svg">
<path d="M5.53125 14.75C5.18604 14.75 4.90625 14.4702 4.90625 14.125V11.7812C4.90625 11.436 5.18604 11.1562 5.53125 11.1562C5.87646 11.1562 6.15625 11.436 6.15625 11.7812V14.125C6.15625 14.4702 5.87646 14.75 5.53125 14.75ZM6.15625 9.25V6.8125C6.15625 6.46729 5.87646 6.1875 5.53125 6.1875C5.18604 6.1875 4.90625 6.46729 4.90625 6.8125V9.25C4.90625 9.59521 5.18604 9.875 5.53125 9.875C5.87646 9.875 6.15625 9.59521 6.15625 9.25ZM6.15625 4.25V1.84375C6.15625 1.49854 5.87646 1.21875 5.53125 1.21875C5.18604 1.21875 4.90625 1.49854 4.90625 1.84375V4.25C4.90625 4.59521 5.18604 4.875 5.53125 4.875C5.87646 4.875 6.15625 4.59521 6.15625 4.25ZM1.25 14.125V11.7812C1.25 11.436 0.970215 11.1562 0.625 11.1562C0.279785 11.1562 0 11.436 0 11.7812V14.125C0 14.4702 0.279785 14.75 0.625 14.75C0.970215 14.75 1.25 14.4702 1.25 14.125ZM1.25 9.25V6.8125C1.25 6.46729 0.970215 6.1875 0.625 6.1875C0.279785 6.1875 0 6.46729 0 6.8125V9.25C0 9.59521 0.279785 9.875 0.625 9.875C0.970215 9.875 1.25 9.59521 1.25 9.25ZM1.25 4.25V1.84375C1.25 1.49854 0.970215 1.21875 0.625 1.21875C0.279785 1.21875 0 1.49854 0 1.84375V4.25C0 4.59521 0.279785 4.875 0.625 4.875C0.970215 4.875 1.25 4.59521 1.25 4.25ZM11.1562 14.125V11.8125C11.1562 11.4673 10.8765 11.1875 10.5312 11.1875C10.186 11.1875 9.90625 11.4673 9.90625 11.8125V14.125C9.90625 14.4702 10.186 14.75 10.5312 14.75C10.8765 14.75 11.1562 14.4702 11.1562 14.125ZM11.1562 9.25V6.78125C11.1562 6.43604 10.8765 6.15625 10.5312 6.15625C10.186 6.15625 9.90625 6.43604 9.90625 6.78125V9.25C9.90625 9.59521 10.186 9.875 10.5312 9.875C10.8765 9.875 11.1562 9.59521 11.1562 9.25ZM11.1562 4.28125V1.84375C11.1562 1.49854 10.8765 1.21875 10.5312 1.21875C10.186 1.21875 9.90625 1.49854 9.90625 1.84375V4.28125C9.90625 4.62646 10.186 4.90625 10.5312 4.90625C10.8765 4.90625 11.1562 4.62646 11.1562 4.28125ZM16 14.125V11.8125C16 11.4673 15.7202 11.1875 15.375 11.1875C15.0298 11.1875 14.75 11.4673 14.75 11.8125V14.125C14.75 14.4702 15.0298 14.75 15.375 14.75C15.7202 14.75 16 14.4702 16 14.125ZM16 9.25V6.78125C16 6.43604 15.7202 6.15625 15.375 6.15625C15.0298 6.15625 14.75 6.43604 14.75 6.78125V9.25C14.75 9.59521 15.0298 9.875 15.375 9.875C15.7202 9.875 16 9.59521 16 9.25ZM16 4.28125V1.84375C16 1.49854 15.7202 1.21875 15.375 1.21875C15.0298 1.21875 14.75 1.49854 14.75 1.84375V4.28125C14.75 4.62646 15.0298 4.90625 15.375 4.90625C15.7202 4.90625 16 4.62646 16 4.28125ZM14.75 10.5312C14.75 10.186 14.4702 9.90625 14.125 9.90625H11.75C11.4048 9.90625 11.125 10.186 11.125 10.5312C11.125 10.8765 11.4048 11.1562 11.75 11.1562H14.125C14.4702 11.1562 14.75 10.8765 14.75 10.5312ZM9.9375 10.5312C9.9375 10.186 9.65771 9.90625 9.3125 9.90625H6.75C6.40479 9.90625 6.125 10.186 6.125 10.5312C6.125 10.8765 6.40479 11.1562 6.75 11.1562H9.3125C9.65771 11.1562 9.9375 10.8765 9.9375 10.5312ZM4.9375 10.5312C4.9375 10.186 4.65771 9.90625 4.3125 9.90625H1.84375C1.49854 9.90625 1.21875 10.186 1.21875 10.5312C1.21875 10.8765 1.49854 11.1562 1.84375 11.1562H4.3125C4.65771 11.1562 4.9375 10.8765 4.9375 10.5312ZM14.75 15.375C14.75 15.0298 14.4702 14.75 14.125 14.75H11.75C11.4048 14.75 11.125 15.0298 11.125 15.375C11.125 15.7202 11.4048 16 11.75 16H14.125C14.4702 16 14.75 15.7202 14.75 15.375ZM9.9375 15.375C9.9375 15.0298 9.65771 14.75 9.3125 14.75H6.75C6.40479 14.75 6.125 15.0298 6.125 15.375C6.125 15.7202 6.40479 16 6.75 16H9.3125C9.65771 16 9.9375 15.7202 9.9375 15.375ZM4.9375 15.375C4.9375 15.0298 4.65771 14.75 4.3125 14.75H1.84375C1.49854 14.75 1.21875 15.0298 1.21875 15.375C1.21875 15.7202 1.49854 16 1.84375 16H4.3125C4.65771 16 4.9375 15.7202 4.9375 15.375ZM14.75 5.53125C14.75 5.18604 14.4702 4.90625 14.125 4.90625H11.7812C11.436 4.90625 11.1562 5.18604 11.1562 5.53125C11.1562 5.87646 11.436 6.15625 11.7812 6.15625H14.125C14.4702 6.15625 14.75 5.87646 14.75 5.53125ZM9.90625 5.53125C9.90625 5.18604 9.62646 4.90625 9.28125 4.90625H6.75C6.40479 4.90625 6.125 5.18604 6.125 5.53125C6.125 5.87646 6.40479 6.15625 6.75 6.15625H9.28125C9.62646 6.15625 9.90625 5.87646 9.90625 5.53125ZM4.90625 5.53125C4.90625 5.18604 4.62646 4.90625 4.28125 4.90625H1.84375C1.49854 4.90625 1.21875 5.18604 1.21875 5.53125C1.21875 5.87646 1.49854 6.15625 1.84375 6.15625H4.28125C4.62646 6.15625 4.90625 5.87646 4.90625 5.53125ZM14.75 0.625C14.75 0.279785 14.4702 0 14.125 0H11.7812C11.436 0 11.1562 0.279785 11.1562 0.625C11.1562 0.970215 11.436 1.25 11.7812 1.25H14.125C14.4702 1.25 14.75 0.970215 14.75 0.625ZM9.90625 0.625C9.90625 0.279785 9.62646 0 9.28125 0H6.75C6.40479 0 6.125 0.279785 6.125 0.625C6.125 0.970215 6.40479 1.25 6.75 1.25H9.28125C9.62646 1.25 9.90625 0.970215 9.90625 0.625ZM4.90625 0.625C4.90625 0.279785 4.62646 0 4.28125 0H1.84375C1.49854 0 1.21875 0.279785 1.21875 0.625C1.21875 0.970215 1.49854 1.25 1.84375 1.25H4.28125C4.62646 1.25 4.90625 0.970215 4.90625 0.625Z" fill="#EA1C4F"/>
</svg>
