<svg width="19" height="20" viewBox="0 0 19 20" fill="none" xmlns="http://www.w3.org/2000/svg">
<path d="M6.21094 13.6719V17.3828C6.21094 18.826 5.03693 20 3.59375 20C2.15057 20 0.976562 18.826 0.976562 17.3828C0.976562 16.9513 1.32629 16.6016 1.75781 16.6016C2.18933 16.6016 2.53906 16.9513 2.53906 17.3828C2.53906 17.9643 3.01224 18.4375 3.59375 18.4375C4.17526 18.4375 4.64844 17.9643 4.64844 17.3828V13.6719C4.64844 13.2404 4.99817 12.8906 5.42969 12.8906C5.86121 12.8906 6.21094 13.2404 6.21094 13.6719ZM18.2031 16.0938H16.8359C16.4044 16.0938 16.0547 16.4435 16.0547 16.875C16.0547 17.3065 16.4044 17.6562 16.8359 17.6562H17.3822C17.2049 18.1247 16.7485 18.4375 16.2109 18.4375C15.5217 18.4375 14.9609 17.8767 14.9609 17.1875V15.7031C14.9609 15.0139 15.5217 14.4531 16.2109 14.4531C16.651 14.4531 17.0506 14.678 17.28 15.0546C17.5043 15.4233 17.9849 15.5402 18.3534 15.3159C18.7221 15.0914 18.839 14.6107 18.6147 14.2422C18.0995 13.3958 17.2009 12.8906 16.2109 12.8906C14.6602 12.8906 13.3984 14.1524 13.3984 15.7031V17.1875C13.3984 18.7383 14.6602 20 16.2109 20C16.8642 20 17.4988 19.778 17.9979 19.3748C18.499 18.9703 18.844 18.4003 18.9694 17.7696C18.9793 17.7194 18.9844 17.6683 18.9844 17.6172V16.875C18.9844 16.4435 18.6346 16.0938 18.2031 16.0938ZM12.2656 15.2344V15.7031C12.2656 16.9955 11.2143 18.0469 9.92188 18.0469H9.02344V19.2188C9.02344 19.6503 8.67371 20 8.24219 20C7.81067 20 7.46094 19.6503 7.46094 19.2188V13.6719C7.46094 13.2404 7.81067 12.8906 8.24219 12.8906H9.92188C11.2143 12.8906 12.2656 13.942 12.2656 15.2344ZM10.7031 15.2344C10.7031 14.8036 10.3526 14.4531 9.92188 14.4531H9.02344V16.4844H9.92188C10.3526 16.4844 10.7031 16.1339 10.7031 15.7031V15.2344ZM16.4453 5.37369V10.5469C16.4453 10.9784 16.795 11.3281 17.2266 11.3281C17.6581 11.3281 18.0078 10.9784 18.0078 10.5469V5.37369C18.0078 4.74777 17.764 4.15924 17.3213 3.71643L14.2914 0.686493C13.8487 0.243835 13.2602 0 12.6341 0H5.27786C3.55469 0 2.15286 1.40182 2.15286 3.125V10.5469C2.15286 10.9784 2.50259 11.3281 2.93411 11.3281C3.36548 11.3281 3.71536 10.9784 3.71536 10.5469V3.125C3.71536 2.26349 4.4162 1.5625 5.27786 1.5625H12.6341C12.8427 1.5625 13.0389 1.64368 13.1865 1.79138L16.2164 4.82132C16.364 4.96887 16.4453 5.1651 16.4453 5.37369Z" fill="#EA1C4F"/>
<path d="M8.55406 9.66174C8.90906 10.0167 9.48463 10.0167 9.83964 9.66174L11.5019 7.99946V9.66174C11.5107 10.1637 11.9246 10.5636 12.4266 10.5549C12.9163 10.5464 13.3113 10.1514 13.3197 9.66174V5.80493C13.3204 5.30285 12.9139 4.89536 12.4118 4.89473C12.411 4.89473 12.4103 4.89472 12.4095 4.89472L8.55273 4.89472C8.05038 4.89509 7.64346 5.30261 7.64379 5.80493C7.64412 6.30725 8.05168 6.7142 8.554 6.71387H10.2163L8.554 8.37616C8.19905 8.73116 8.19905 9.30673 8.55406 9.66174Z" fill="#EA1C4F"/>
</svg>
