<svg width="20" height="20" viewBox="0 0 20 20" fill="none" xmlns="http://www.w3.org/2000/svg">
<path d="M18.3335 0.833328C18.1125 0.833367 17.9005 0.921219 17.7443 1.07751L14.1668 4.655V2.50001C14.1668 2.03977 13.7937 1.66669 13.3335 1.66669C12.8732 1.66669 12.5002 2.03977 12.5002 2.50001V6.66668C12.5001 7.12692 12.8732 7.5 13.3335 7.5H17.5001C17.9604 7.5 18.3334 7.12692 18.3334 6.66668C18.3334 6.20645 17.9604 5.83336 17.5001 5.83336H15.3451L18.9226 2.25587C19.248 1.9304 19.2479 1.40274 18.9224 1.07735C18.7662 0.921141 18.5544 0.833406 18.3335 0.833328Z" fill="white"/>
<path d="M1.66641 0.833328C1.88742 0.833367 2.09934 0.921219 2.25559 1.07751L5.83309 4.655V2.50001C5.83309 2.03977 6.20618 1.66669 6.66641 1.66669C7.12665 1.66669 7.49973 2.03977 7.49973 2.50001V6.66668C7.49977 7.12692 7.12665 7.5 6.66641 7.5H2.49977C2.03953 7.5 1.66645 7.12692 1.66645 6.66668C1.66645 6.20645 2.03953 5.83336 2.49977 5.83336H4.65477L1.07726 2.25587C0.751874 1.9304 0.751952 1.40274 1.07746 1.07735C1.23367 0.921141 1.44551 0.833406 1.66641 0.833328Z" fill="white"/>
<path d="M6.65635 12.5102H2.48967C2.02944 12.5102 1.65635 12.8833 1.65635 13.3436C1.65635 13.8038 2.02944 14.1769 2.48967 14.1769H4.64467L1.06717 17.7544C0.747446 18.0855 0.756626 18.613 1.08764 18.9327C1.41057 19.2446 1.92256 19.2446 2.24549 18.9327L5.82299 15.3552V17.5102C5.82299 17.9705 6.19608 18.3436 6.65631 18.3436C7.11654 18.3436 7.48967 17.9705 7.48967 17.5102V13.3436C7.48967 12.8834 7.11658 12.5102 6.65635 12.5102Z" fill="white"/>
<path d="M13.3435 12.5102H17.5102C17.9704 12.5102 18.3435 12.8833 18.3435 13.3436C18.3435 13.8038 17.9704 14.1769 17.5102 14.1769H15.3552L18.9327 17.7544C19.2524 18.0855 19.2433 18.613 18.9122 18.9327C18.5893 19.2446 18.0773 19.2446 17.7544 18.9327L14.1769 15.3552V17.5102C14.1769 17.9705 13.8038 18.3436 13.3436 18.3436C12.8833 18.3436 12.5102 17.9705 12.5102 17.5102V13.3436C12.5102 12.8834 12.8833 12.5102 13.3435 12.5102Z" fill="white"/>
</svg>
