<svg width="21" height="18" viewBox="0 0 21 18" fill="none" xmlns="http://www.w3.org/2000/svg">
<path d="M20.274 10.091C19.9704 9.7843 19.4757 9.78187 19.1691 10.0855L17.375 11.8618V9C17.375 6.74625 16.4974 4.62742 14.9037 3.03379C13.3101 1.44016 11.1912 0.5625 8.93753 0.5625C7.55362 0.5625 6.18823 0.903164 4.97433 1.54957C4.97269 1.55043 4.97105 1.55129 4.96941 1.55215C4.96597 1.55398 4.96253 1.55582 4.95909 1.5577C4.95882 1.55781 4.95859 1.55797 4.95831 1.55809C4.95066 1.56219 4.943 1.56629 4.93538 1.57043C4.93167 1.57242 4.92796 1.57445 4.92425 1.57645C4.92155 1.57789 4.91886 1.57937 4.91616 1.58082C4.87066 1.60551 4.82534 1.63062 4.78026 1.65621C4.77726 1.65789 4.77429 1.65961 4.77132 1.66137C4.58757 1.76594 4.40694 1.87781 4.23218 1.99543C3.87421 2.23633 3.77929 2.72184 4.02019 3.07977C4.17105 3.30394 4.41776 3.42492 4.66905 3.42492C4.81905 3.42492 4.97073 3.3818 5.10448 3.29176C5.29733 3.16199 5.4989 3.04078 5.70358 2.93144C6.69323 2.40336 7.80749 2.125 8.93753 2.125C12.7284 2.125 15.8125 5.2091 15.8125 9V11.8802L14.0145 10.125C13.7058 9.82351 13.2111 9.82953 12.9098 10.1383C12.6083 10.447 12.6143 10.9416 12.9231 11.243L14.9433 13.2152C15.3973 13.6584 15.9916 13.8797 16.5859 13.8797C17.1857 13.8797 17.7855 13.6542 18.2405 13.2036L20.2685 11.1958C20.5751 10.8922 20.5775 10.3975 20.274 10.091Z" fill="#EA1C4F"/>
<path d="M1.34238 7.75202C0.910742 7.72557 0.541445 8.05409 0.515469 8.48479C0.505234 8.65514 0.5 8.82846 0.5 9.0003C0.500039 9.11483 0.502383 9.23045 0.506914 9.34393C0.523828 9.76439 0.869961 10.0938 1.28703 10.0938C1.29758 10.0938 1.30816 10.0937 1.31887 10.0932C1.74996 10.0759 2.08547 9.7124 2.0682 9.28127C2.06445 9.18838 2.06254 9.09362 2.0625 8.99998C2.0625 8.85971 2.06676 8.71803 2.07516 8.57893C2.10113 8.14827 1.77309 7.77803 1.34238 7.75202Z" fill="#EA1C4F"/>
<path d="M3.07788 12.598C2.95561 12.3994 2.84249 12.1926 2.74151 11.9833C2.55409 11.5947 2.08714 11.4315 1.69847 11.6191C1.30983 11.8065 1.14675 12.2735 1.33421 12.6621C1.45823 12.9193 1.59718 13.1732 1.74722 13.417C1.89479 13.6568 2.15097 13.7889 2.41327 13.7889C2.55296 13.7889 2.69436 13.7514 2.82206 13.6728C3.18952 13.4466 3.30405 12.9654 3.07788 12.598Z" fill="#EA1C4F"/>
<path d="M8.93752 15.875C8.7037 15.875 8.46788 15.8631 8.23666 15.8398C7.80791 15.7962 7.4242 16.1092 7.38084 16.5385C7.33745 16.9678 7.65026 17.351 8.07959 17.3944C8.3628 17.423 8.65147 17.4375 8.93756 17.4375C9.36905 17.4375 9.71889 17.0877 9.71889 16.6562C9.71889 16.2248 9.36901 15.875 8.93752 15.875Z" fill="#EA1C4F"/>
<path d="M5.58154 15.0018C5.37845 14.888 5.17876 14.7622 4.98814 14.6282C4.63513 14.38 4.14787 14.4649 3.8997 14.8179C3.6515 15.1708 3.73646 15.6582 4.08939 15.9063C4.3233 16.0708 4.5683 16.225 4.81755 16.3648C4.93841 16.4325 5.06947 16.4647 5.19884 16.4647C5.47232 16.4647 5.73783 16.3208 5.88107 16.0653C6.09196 15.6889 5.95794 15.2128 5.58154 15.0018Z" fill="#EA1C4F"/>
<path d="M2.91913 4.2029C2.55644 3.96935 2.07292 4.07392 1.83929 4.43669C1.68421 4.67744 1.54003 4.92861 1.41074 5.18318C1.21531 5.56791 1.36878 6.03814 1.75343 6.23353C1.86679 6.29115 1.98761 6.31842 2.10663 6.31842C2.3914 6.31842 2.66597 6.16213 2.80378 5.89084C2.90909 5.68349 3.02656 5.47892 3.15292 5.28275C3.38652 4.91997 3.28187 4.43654 2.91913 4.2029Z" fill="#EA1C4F"/>
</svg>
