<svg width="20" height="20" viewBox="0 0 20 20" fill="none" xmlns="http://www.w3.org/2000/svg">
<path d="M18.4375 11.9922V6.91406C18.4375 6.05255 17.7365 5.35156 16.875 5.35156H15.6891C14.6854 5.35156 13.7936 4.71313 13.4703 3.76297L13.2339 3.06854C13.1261 2.75192 12.8288 2.53906 12.4944 2.53906H7.5032C7.17514 2.53906 6.87988 2.74643 6.76849 3.05496L6.49796 3.80386C6.16379 4.72961 5.27786 5.35156 4.29367 5.35156H3.125C2.26349 5.35156 1.5625 6.05255 1.5625 6.91406V15.8984C1.5625 16.7599 2.26349 17.4609 3.125 17.4609H16.875C17.7365 17.4609 18.4375 16.7599 18.4375 15.8984C18.4375 15.4669 18.7872 15.1172 19.2188 15.1172C19.6503 15.1172 20 15.4669 20 15.8984C20 17.6216 18.5982 19.0234 16.875 19.0234H3.125C1.40182 19.0234 0 17.6216 0 15.8984V6.91406C0 5.19089 1.40182 3.78906 3.125 3.78906H4.29367C4.62173 3.78906 4.91699 3.5817 5.02838 3.27316L5.29892 2.52426C5.63309 1.59851 6.51901 0.976562 7.5032 0.976562H12.4944C13.4979 0.976562 14.3896 1.61499 14.713 2.565L14.9493 3.25958C15.0572 3.57635 15.3545 3.78906 15.6891 3.78906H16.875C18.5982 3.78906 20 5.19089 20 6.91406V11.9922C20 12.4237 19.6503 12.7734 19.2188 12.7734C18.7872 12.7734 18.4375 12.4237 18.4375 11.9922ZM8.95248 12.1094C8.95248 11.6779 8.60275 11.3281 8.17123 11.3281H6.17905C5.31357 11.3281 4.60938 12.0291 4.60938 12.8906V14.8438C4.60938 15.2753 4.95911 15.625 5.39062 15.625C5.82214 15.625 6.17188 15.2753 6.17188 14.8438V14.0762C7.08069 15.2924 8.52844 16.0547 10.1172 16.0547C12.8311 16.0547 15.0391 13.8467 15.0391 11.1328C15.0391 8.41888 12.8311 6.21094 10.1172 6.21094C8.36563 6.21094 6.73218 7.15378 5.85419 8.67126C5.63828 9.0448 5.76584 9.52271 6.13937 9.73877C6.51276 9.95483 6.99066 9.82712 7.20673 9.45374C7.80624 8.41721 8.92151 7.77344 10.1172 7.77344C11.9696 7.77344 13.4766 9.2804 13.4766 11.1328C13.4766 12.9852 11.9696 14.4922 10.1172 14.4922C8.9267 14.4922 7.85172 13.8658 7.25281 12.8906H8.17123C8.60275 12.8906 8.95248 12.5409 8.95248 12.1094Z" fill="white"/>
</svg>
