<svg width="16" height="16" viewBox="0 0 16 16" fill="none" xmlns="http://www.w3.org/2000/svg">
<path d="M16 7.99993C16 7.41499 15.6708 6.89758 15.141 6.64965L14.7377 6.46093L15.141 6.27221C15.6708 6.02427 16 5.50686 16 4.92193C16 4.33699 15.6708 3.81958 15.141 3.57165L8.63206 0.525864C8.23038 0.337896 7.76963 0.337896 7.36794 0.525864L0.859031 3.57161C0.329156 3.81958 0 4.33699 0 4.92193C0 5.50686 0.329156 6.02427 0.859031 6.27221L1.26231 6.46093L0.859031 6.64965C0.329156 6.89758 0 7.41499 0 7.99993C0 8.58486 0.329156 9.10227 0.859031 9.35021L1.26231 9.53893L0.859031 9.72764C0.329156 9.97558 0 10.493 0 11.0779C0 11.6629 0.329156 12.1802 0.859031 12.4282L7.36794 15.474C7.56878 15.568 7.78438 15.615 8 15.615C8.21562 15.615 8.43122 15.568 8.63206 15.474L11.788 13.9972C12.1006 13.8509 12.2355 13.4789 12.0892 13.1662C11.9428 12.8536 11.5708 12.7188 11.2582 12.8651L8.10228 14.3418C8.03728 14.3722 7.96272 14.3722 7.89775 14.3418L1.38881 11.2961C1.26803 11.2395 1.25 11.1351 1.25 11.078C1.25 11.0207 1.26803 10.9164 1.38881 10.8598L2.73694 10.229L7.36794 12.396C7.56881 12.49 7.78438 12.537 8 12.537C8.21559 12.537 8.43125 12.49 8.63206 12.396L13.2631 10.229L14.6112 10.8598C14.732 10.9164 14.75 11.0207 14.75 11.0779C14.75 11.1351 14.732 11.2395 14.6112 11.2961L14.0891 11.5404C13.7764 11.6867 13.6416 12.0587 13.7879 12.3714C13.8941 12.5984 14.1193 12.7316 14.3544 12.7316C14.4431 12.7316 14.5332 12.7126 14.6189 12.6726L15.1409 12.4282C15.6708 12.1802 16 11.6629 16 11.0779C16 10.493 15.6708 9.97561 15.141 9.72764L14.7377 9.53893L15.141 9.35021C15.6708 9.10227 16 8.58486 16 7.99993ZM1.38881 4.7038L7.89775 1.65802C7.93025 1.6428 7.96513 1.63521 8 1.63521C8.03487 1.63521 8.06975 1.64283 8.10225 1.65802L14.6112 4.7038C14.7319 4.76033 14.75 4.86471 14.75 4.92193C14.75 4.97915 14.7319 5.08352 14.6112 5.14005L8.10222 8.18583C8.03725 8.21627 7.96269 8.21627 7.89772 8.18583L1.38881 5.14005C1.26803 5.08352 1.25 4.97915 1.25 4.92193C1.25 4.86471 1.26803 4.7603 1.38881 4.7038ZM14.6112 8.21805L8.10225 11.2638C8.03728 11.2943 7.96275 11.2943 7.89775 11.2638L1.38881 8.21805C1.26803 8.16152 1.25 8.05715 1.25 7.99993C1.25 7.94271 1.26803 7.83833 1.38881 7.7818L2.73694 7.15096L7.36794 9.31799C7.56881 9.41199 7.78438 9.45899 8 9.45896C8.21559 9.45896 8.43125 9.41196 8.63206 9.31799L13.2631 7.15096L14.6112 7.7818C14.732 7.83833 14.75 7.94271 14.75 7.99993C14.75 8.05715 14.732 8.16152 14.6112 8.21805Z" fill="#EA1C4F"/>
</svg>
