<svg width="20" height="20" viewBox="0 0 20 20" fill="none" xmlns="http://www.w3.org/2000/svg">
<path d="M13.2812 4.80469H9.96094C9.52945 4.80469 9.17969 5.15445 9.17969 5.58594C9.17969 6.01742 9.52945 6.36719 9.96094 6.36719H12.567L7.82184 11.1123C7.35113 10.828 6.79984 10.6641 6.21094 10.6641H3.125C1.40188 10.6641 0 12.0659 0 13.7891V16.875C0 18.5981 1.40188 20 3.125 20H6.21094C7.93406 20 9.33594 18.5981 9.33594 16.875V13.7891C9.33594 13.2205 9.18258 12.6875 8.91621 12.2277L13.6719 7.47207V10.0781C13.6719 10.5096 14.0216 10.8594 14.4531 10.8594C14.8846 10.8594 15.2344 10.5096 15.2344 10.0781V6.75781C15.2344 5.68086 14.3582 4.80469 13.2812 4.80469ZM7.77344 16.875C7.77344 17.7366 7.0725 18.4375 6.21094 18.4375H3.125C2.26344 18.4375 1.5625 17.7366 1.5625 16.875V13.7891C1.5625 12.9275 2.26344 12.2266 3.125 12.2266H6.21094C7.0725 12.2266 7.77344 12.9275 7.77344 13.7891V16.875ZM7.89062 0.78125C7.89062 0.349766 8.24039 0 8.67188 0C9.10336 0 9.45312 0.349766 9.45312 0.78125C9.45312 1.21273 9.10336 1.5625 8.67188 1.5625C8.24039 1.5625 7.89062 1.21273 7.89062 0.78125ZM5 0.78125C5 0.349766 5.34977 0 5.78125 0C6.21273 0 6.5625 0.349766 6.5625 0.78125C6.5625 1.21273 6.21273 1.5625 5.78125 1.5625C5.34977 1.5625 5 1.21273 5 0.78125ZM2.10938 0.78125C2.10938 0.349766 2.45914 0 2.89062 0C3.32211 0 3.67188 0.349766 3.67188 0.78125C3.67188 1.21273 3.32211 1.5625 2.89062 1.5625C2.45914 1.5625 2.10938 1.21273 2.10938 0.78125ZM0 2.65625C0 2.22477 0.349766 1.875 0.78125 1.875C1.21273 1.875 1.5625 2.22477 1.5625 2.65625C1.5625 3.08773 1.21273 3.4375 0.78125 3.4375C0.349766 3.4375 0 3.08773 0 2.65625ZM20 17.1094C20 17.5409 19.6502 17.8906 19.2188 17.8906C18.7873 17.8906 18.4375 17.5409 18.4375 17.1094C18.4375 16.6779 18.7873 16.3281 19.2188 16.3281C19.6502 16.3281 20 16.6779 20 17.1094ZM18.125 19.2188C18.125 19.6502 17.7752 20 17.3438 20C16.9123 20 16.5625 19.6502 16.5625 19.2188C16.5625 18.7873 16.9123 18.4375 17.3438 18.4375C17.7752 18.4375 18.125 18.7873 18.125 19.2188ZM18.4375 2.89062C18.4375 2.45914 18.7873 2.10938 19.2188 2.10938C19.6502 2.10938 20 2.45914 20 2.89062C20 3.32211 19.6502 3.67188 19.2188 3.67188C18.7873 3.67188 18.4375 3.32211 18.4375 2.89062ZM10.7812 0.78125C10.7812 0.349766 11.131 0 11.5625 0C11.994 0 12.3438 0.349766 12.3438 0.78125C12.3438 1.21273 11.994 1.5625 11.5625 1.5625C11.131 1.5625 10.7812 1.21273 10.7812 0.78125ZM15.2344 0.78125C15.2344 1.21273 14.8846 1.5625 14.4531 1.5625C14.0216 1.5625 13.6719 1.21273 13.6719 0.78125C13.6719 0.349766 14.0216 0 14.4531 0C14.8846 0 15.2344 0.349766 15.2344 0.78125ZM12.3438 19.2188C12.3438 19.6502 11.994 20 11.5625 20C11.131 20 10.7812 19.6502 10.7812 19.2188C10.7812 18.7873 11.131 18.4375 11.5625 18.4375C11.994 18.4375 12.3438 18.7873 12.3438 19.2188ZM15.2344 19.2188C15.2344 19.6502 14.8846 20 14.4531 20C14.0216 20 13.6719 19.6502 13.6719 19.2188C13.6719 18.7873 14.0216 18.4375 14.4531 18.4375C14.8846 18.4375 15.2344 18.7873 15.2344 19.2188ZM20 8.55469C20 8.98617 19.6502 9.33594 19.2188 9.33594C18.7873 9.33594 18.4375 8.98617 18.4375 8.55469C18.4375 8.1232 18.7873 7.77344 19.2188 7.77344C19.6502 7.77344 20 8.1232 20 8.55469ZM20 5.66406C20 6.09555 19.6502 6.44531 19.2188 6.44531C18.7873 6.44531 18.4375 6.09555 18.4375 5.66406C18.4375 5.23258 18.7873 4.88281 19.2188 4.88281C19.6502 4.88281 20 5.23258 20 5.66406ZM0 5.66406C0 5.23258 0.349766 4.88281 0.78125 4.88281C1.21273 4.88281 1.5625 5.23258 1.5625 5.66406C1.5625 6.09555 1.21273 6.44531 0.78125 6.44531C0.349766 6.44531 0 6.09555 0 5.66406ZM20 11.4453C20 11.8768 19.6502 12.2266 19.2188 12.2266C18.7873 12.2266 18.4375 11.8768 18.4375 11.4453C18.4375 11.0138 18.7873 10.6641 19.2188 10.6641C19.6502 10.6641 20 11.0138 20 11.4453ZM20 14.3359C20 14.7674 19.6502 15.1172 19.2188 15.1172C18.7873 15.1172 18.4375 14.7674 18.4375 14.3359C18.4375 13.9045 18.7873 13.5547 19.2188 13.5547C19.6502 13.5547 20 13.9045 20 14.3359ZM0 8.55469C0 8.1232 0.349766 7.77344 0.78125 7.77344C1.21273 7.77344 1.5625 8.1232 1.5625 8.55469C1.5625 8.98617 1.21273 9.33594 0.78125 9.33594C0.349766 9.33594 0 8.98617 0 8.55469ZM18.125 0.78125C18.125 1.21273 17.7752 1.5625 17.3438 1.5625C16.9123 1.5625 16.5625 1.21273 16.5625 0.78125C16.5625 0.349766 16.9123 0 17.3438 0C17.7752 0 18.125 0.349766 18.125 0.78125Z" fill="#EA1C4F"/>
</svg>
