<svg width="32" height="32" viewBox="0 0 32 32" fill="none" xmlns="http://www.w3.org/2000/svg">
<g filter="url(#filter0_d_347_38)">
<path d="M28 7.59375V12.5625C28 13.0803 27.5803 13.5 27.0625 13.5C26.5447 13.5 26.125 13.0803 26.125 12.5625V7.59375C26.125 6.55994 25.2838 5.71875 24.25 5.71875H7.75C6.71619 5.71875 5.875 6.55994 5.875 7.59375V20.7188C5.875 21.7526 6.71619 22.5938 7.75 22.5938H14.3125C14.8303 22.5938 15.25 23.0134 15.25 23.5312C15.25 24.0491 14.8303 24.4688 14.3125 24.4688H7.75C5.68219 24.4688 4 22.7866 4 20.7188V7.59375C4 5.52594 5.68219 3.84375 7.75 3.84375H24.25C26.3178 3.84375 28 5.52594 28 7.59375ZM7.93256 19.1219C8.34509 19.4348 8.93304 19.3542 9.24615 18.9417L10.5777 17.187L13.0515 20.3157C13.2292 20.5408 13.5002 20.6719 13.7868 20.6719H13.7879C14.075 20.6715 14.346 20.5397 14.5236 20.3141L21.7358 11.1506L23.1986 12.9245C23.5278 13.324 24.1187 13.3808 24.5182 13.0514C24.9178 12.722 24.9745 12.1311 24.6451 11.7318L22.442 9.05988C22.2615 8.84088 21.9919 8.71509 21.7081 8.71875C21.4245 8.72205 21.1575 8.85352 20.9819 9.07635L13.7852 18.2206L11.2979 15.0747C11.118 14.8473 10.8439 14.7175 10.5532 14.7188C10.2633 14.7217 9.99103 14.8585 9.81561 15.0895L7.75256 17.8083C7.43945 18.2206 7.5202 18.8088 7.93256 19.1219ZM7.75 10.0312C7.75 8.48035 9.0116 7.21875 10.5625 7.21875C12.1134 7.21875 13.375 8.48035 13.375 10.0312C13.375 11.5822 12.1134 12.8438 10.5625 12.8438C9.0116 12.8438 7.75 11.5822 7.75 10.0312ZM9.625 10.0312C9.625 10.5482 10.0456 10.9688 10.5625 10.9688C11.0794 10.9688 11.5 10.5482 11.5 10.0312C11.5 9.51434 11.0794 9.09375 10.5625 9.09375C10.0456 9.09375 9.625 9.51434 9.625 10.0312ZM27.1762 15.73C28.2728 16.8267 28.2728 18.6108 27.1762 19.7075L22.0401 24.834C21.9257 24.9483 21.7838 25.0309 21.6279 25.0739L17.8441 26.1222C17.7613 26.1451 17.6772 26.1562 17.5938 26.1562C17.3445 26.1562 17.1016 26.0568 16.9227 25.8734C16.6839 25.6287 16.5973 25.2733 16.6967 24.9463L17.8177 21.256C17.8625 21.1082 17.9431 20.9738 18.0524 20.8649L23.1995 15.7291C24.2954 14.6334 26.0796 14.6334 27.1762 15.73ZM24.3423 19.8869L23.0162 18.5609L19.5433 22.0261L18.9863 23.8603L20.8898 23.3329L24.3423 19.8869ZM25.8503 17.0559C25.4849 16.6902 24.8901 16.6902 24.5247 17.0559L24.3436 17.2365L25.6694 18.5623L25.8511 18.381C26.216 18.0161 26.216 17.4214 25.8503 17.0559Z" fill="white"/>
</g>
<defs>
<filter id="filter0_d_347_38" x="0" y="0.84375" width="32" height="30.3125" filterUnits="userSpaceOnUse" color-interpolation-filters="sRGB">
<feFlood flood-opacity="0" result="BackgroundImageFix"/>
<feColorMatrix in="SourceAlpha" type="matrix" values="0 0 0 0 0 0 0 0 0 0 0 0 0 0 0 0 0 0 127 0" result="hardAlpha"/>
<feOffset dy="1"/>
<feGaussianBlur stdDeviation="2"/>
<feComposite in2="hardAlpha" operator="out"/>
<feColorMatrix type="matrix" values="0 0 0 0 0.484505 0 0 0 0 0.470208 0 0 0 0 0.508333 0 0 0 0.75 0"/>
<feBlend mode="normal" in2="BackgroundImageFix" result="effect1_dropShadow_347_38"/>
<feBlend mode="normal" in="SourceGraphic" in2="effect1_dropShadow_347_38" result="shape"/>
</filter>
</defs>
</svg>
