<svg width="21" height="20" viewBox="0 0 21 20" fill="none" xmlns="http://www.w3.org/2000/svg">
<path d="M13.7812 4.80469H10.4609C10.0295 4.80469 9.67969 5.15445 9.67969 5.58594C9.67969 6.01742 10.0295 6.36719 10.4609 6.36719H13.067L8.32184 11.1123C7.85113 10.828 7.29984 10.6641 6.71094 10.6641H3.625C1.90188 10.6641 0.5 12.0659 0.5 13.7891V16.875C0.5 18.5981 1.90188 20 3.625 20H6.71094C8.43406 20 9.83594 18.5981 9.83594 16.875V13.7891C9.83594 13.2205 9.68258 12.6875 9.41621 12.2277L14.1719 7.47207V10.0781C14.1719 10.5096 14.5216 10.8594 14.9531 10.8594C15.3846 10.8594 15.7344 10.5096 15.7344 10.0781V6.75781C15.7344 5.68086 14.8582 4.80469 13.7812 4.80469ZM8.27344 16.875C8.27344 17.7366 7.5725 18.4375 6.71094 18.4375H3.625C2.76344 18.4375 2.0625 17.7366 2.0625 16.875V13.7891C2.0625 12.9275 2.76344 12.2266 3.625 12.2266H6.71094C7.5725 12.2266 8.27344 12.9275 8.27344 13.7891V16.875ZM8.39062 0.78125C8.39062 0.349766 8.74039 0 9.17188 0C9.60336 0 9.95312 0.349766 9.95312 0.78125C9.95312 1.21273 9.60336 1.5625 9.17188 1.5625C8.74039 1.5625 8.39062 1.21273 8.39062 0.78125ZM5.5 0.78125C5.5 0.349766 5.84977 0 6.28125 0C6.71273 0 7.0625 0.349766 7.0625 0.78125C7.0625 1.21273 6.71273 1.5625 6.28125 1.5625C5.84977 1.5625 5.5 1.21273 5.5 0.78125ZM2.60938 0.78125C2.60938 0.349766 2.95914 0 3.39062 0C3.82211 0 4.17188 0.349766 4.17188 0.78125C4.17188 1.21273 3.82211 1.5625 3.39062 1.5625C2.95914 1.5625 2.60938 1.21273 2.60938 0.78125ZM0.5 2.65625C0.5 2.22477 0.849766 1.875 1.28125 1.875C1.71273 1.875 2.0625 2.22477 2.0625 2.65625C2.0625 3.08773 1.71273 3.4375 1.28125 3.4375C0.849766 3.4375 0.5 3.08773 0.5 2.65625ZM20.5 17.1094C20.5 17.5409 20.1502 17.8906 19.7188 17.8906C19.2873 17.8906 18.9375 17.5409 18.9375 17.1094C18.9375 16.6779 19.2873 16.3281 19.7188 16.3281C20.1502 16.3281 20.5 16.6779 20.5 17.1094ZM18.625 19.2188C18.625 19.6502 18.2752 20 17.8438 20C17.4123 20 17.0625 19.6502 17.0625 19.2188C17.0625 18.7873 17.4123 18.4375 17.8438 18.4375C18.2752 18.4375 18.625 18.7873 18.625 19.2188ZM18.9375 2.89062C18.9375 2.45914 19.2873 2.10938 19.7188 2.10938C20.1502 2.10938 20.5 2.45914 20.5 2.89062C20.5 3.32211 20.1502 3.67188 19.7188 3.67188C19.2873 3.67188 18.9375 3.32211 18.9375 2.89062ZM11.2812 0.78125C11.2812 0.349766 11.631 0 12.0625 0C12.494 0 12.8438 0.349766 12.8438 0.78125C12.8438 1.21273 12.494 1.5625 12.0625 1.5625C11.631 1.5625 11.2812 1.21273 11.2812 0.78125ZM15.7344 0.78125C15.7344 1.21273 15.3846 1.5625 14.9531 1.5625C14.5216 1.5625 14.1719 1.21273 14.1719 0.78125C14.1719 0.349766 14.5216 0 14.9531 0C15.3846 0 15.7344 0.349766 15.7344 0.78125ZM12.8438 19.2188C12.8438 19.6502 12.494 20 12.0625 20C11.631 20 11.2812 19.6502 11.2812 19.2188C11.2812 18.7873 11.631 18.4375 12.0625 18.4375C12.494 18.4375 12.8438 18.7873 12.8438 19.2188ZM15.7344 19.2188C15.7344 19.6502 15.3846 20 14.9531 20C14.5216 20 14.1719 19.6502 14.1719 19.2188C14.1719 18.7873 14.5216 18.4375 14.9531 18.4375C15.3846 18.4375 15.7344 18.7873 15.7344 19.2188ZM20.5 8.55469C20.5 8.98617 20.1502 9.33594 19.7188 9.33594C19.2873 9.33594 18.9375 8.98617 18.9375 8.55469C18.9375 8.1232 19.2873 7.77344 19.7188 7.77344C20.1502 7.77344 20.5 8.1232 20.5 8.55469ZM20.5 5.66406C20.5 6.09555 20.1502 6.44531 19.7188 6.44531C19.2873 6.44531 18.9375 6.09555 18.9375 5.66406C18.9375 5.23258 19.2873 4.88281 19.7188 4.88281C20.1502 4.88281 20.5 5.23258 20.5 5.66406ZM0.5 5.66406C0.5 5.23258 0.849766 4.88281 1.28125 4.88281C1.71273 4.88281 2.0625 5.23258 2.0625 5.66406C2.0625 6.09555 1.71273 6.44531 1.28125 6.44531C0.849766 6.44531 0.5 6.09555 0.5 5.66406ZM20.5 11.4453C20.5 11.8768 20.1502 12.2266 19.7188 12.2266C19.2873 12.2266 18.9375 11.8768 18.9375 11.4453C18.9375 11.0138 19.2873 10.6641 19.7188 10.6641C20.1502 10.6641 20.5 11.0138 20.5 11.4453ZM20.5 14.3359C20.5 14.7674 20.1502 15.1172 19.7188 15.1172C19.2873 15.1172 18.9375 14.7674 18.9375 14.3359C18.9375 13.9045 19.2873 13.5547 19.7188 13.5547C20.1502 13.5547 20.5 13.9045 20.5 14.3359ZM0.5 8.55469C0.5 8.1232 0.849766 7.77344 1.28125 7.77344C1.71273 7.77344 2.0625 8.1232 2.0625 8.55469C2.0625 8.98617 1.71273 9.33594 1.28125 9.33594C0.849766 9.33594 0.5 8.98617 0.5 8.55469ZM18.625 0.78125C18.625 1.21273 18.2752 1.5625 17.8438 1.5625C17.4123 1.5625 17.0625 1.21273 17.0625 0.78125C17.0625 0.349766 17.4123 0 17.8438 0C18.2752 0 18.625 0.349766 18.625 0.78125Z" fill="white"/>
</svg>
