<svg width="20" height="20" viewBox="0 0 20 20" fill="none" xmlns="http://www.w3.org/2000/svg">
<path d="M0.970703 4.37949C0.970703 3.91834 1.34455 3.54449 1.8057 3.54449H18.1942C18.6553 3.54449 19.0292 3.91834 19.0292 4.37949C19.0292 4.84065 18.6553 5.21449 18.1942 5.21449H1.8057C1.34454 5.21449 0.970703 4.84065 0.970703 4.37949Z" fill="white"/>
<path d="M0.970703 9.99998C0.970703 9.53882 1.34455 9.16498 1.8057 9.16498H10.6942C11.1553 9.16498 11.5292 9.53882 11.5292 9.99998C11.5292 10.4611 11.1553 10.835 10.6942 10.835H1.8057C1.34455 10.835 0.970703 10.4611 0.970703 9.99998Z" fill="white"/>
<path d="M0.970703 15.6205C0.970703 15.1593 1.34455 14.7855 1.8057 14.7855H10.6942C11.1553 14.7855 11.5292 15.1593 11.5292 15.6205C11.5292 16.0816 11.1553 16.4555 10.6942 16.4555H1.8057C1.34455 16.4555 0.970703 16.0816 0.970703 15.6205Z" fill="white"/>
</svg>
