<svg width="18" height="18" viewBox="0 0 18 18" fill="none" xmlns="http://www.w3.org/2000/svg">
<path d="M8.99984 6.93329C8.59109 6.93329 8.19152 7.0545 7.85166 7.28159C7.5118 7.50868 7.24691 7.83145 7.09049 8.20908C6.93406 8.58671 6.89314 9.00225 6.97288 9.40315C7.05262 9.80404 7.24945 10.1723 7.53848 10.4613C7.82751 10.7503 8.19576 10.9472 8.59665 11.0269C8.99755 11.1067 9.41308 11.0657 9.79072 10.9093C10.1684 10.7529 10.4911 10.488 10.7182 10.1481C10.9453 9.80828 11.0665 9.40871 11.0665 8.99996C11.0665 8.72856 11.013 8.45982 10.9092 8.20908C10.8053 7.95834 10.6531 7.73051 10.4612 7.53861C10.2693 7.3467 10.0415 7.19447 9.79072 7.09061C9.53998 6.98675 9.27124 6.93329 8.99984 6.93329ZM17.2748 4.89163C17.2705 4.24809 17.152 3.61044 16.9248 3.00829C16.7576 2.56768 16.4988 2.16754 16.1655 1.83428C15.8323 1.50102 15.4321 1.24222 14.9915 1.07496C14.3894 0.847846 13.7517 0.729343 13.1082 0.724959C12.0332 0.666626 11.7165 0.666626 8.99984 0.666626C6.28317 0.666626 5.9665 0.666626 4.8915 0.724959C4.24797 0.729343 3.61031 0.847846 3.00817 1.07496C2.56755 1.24222 2.16742 1.50102 1.83416 1.83428C1.5009 2.16754 1.2421 2.56768 1.07484 3.00829C0.847724 3.61044 0.729221 4.24809 0.724837 4.89163C0.666504 5.96663 0.666504 6.28329 0.666504 8.99996C0.666504 11.7166 0.666504 12.0333 0.724837 13.1083C0.733807 13.7541 0.852149 14.3937 1.07484 15C1.24136 15.4386 1.49994 15.8364 1.83317 16.1666C2.165 16.5019 2.566 16.7607 3.00817 16.925C3.61031 17.1521 4.24797 17.2706 4.8915 17.275C5.9665 17.3333 6.28317 17.3333 8.99984 17.3333C11.7165 17.3333 12.0332 17.3333 13.1082 17.275C13.7517 17.2706 14.3894 17.1521 14.9915 16.925C15.4337 16.7607 15.8347 16.5019 16.1665 16.1666C16.4997 15.8364 16.7583 15.4386 16.9248 15C17.1517 14.3949 17.2702 13.7545 17.2748 13.1083C17.3332 12.0333 17.3332 11.7166 17.3332 8.99996C17.3332 6.28329 17.3332 5.96663 17.2748 4.89163ZM15.1582 11.5583C15.1314 12.0725 15.0217 12.5791 14.8332 13.0583C14.6714 13.458 14.4309 13.8212 14.126 14.1261C13.821 14.431 13.4579 14.6715 13.0582 14.8333C12.5744 15.0113 12.0651 15.1098 11.5498 15.125C10.8915 15.125 10.7165 15.125 8.99984 15.125C7.28317 15.125 7.10817 15.125 6.44984 15.125C5.93461 15.1098 5.42524 15.0113 4.9415 14.8333C4.52826 14.6797 4.15507 14.4347 3.84984 14.1166C3.54789 13.8177 3.31471 13.4565 3.1665 13.0583C2.9878 12.5751 2.89201 12.0651 2.88317 11.55C2.88317 10.8916 2.88317 10.7166 2.88317 8.99996C2.88317 7.28329 2.88317 7.10829 2.88317 6.44996C2.89201 5.93481 2.9878 5.42486 3.1665 4.94163C3.32007 4.52838 3.56507 4.15519 3.88317 3.84996C4.18345 3.54965 4.54422 3.3167 4.9415 3.16663C5.42524 2.98863 5.93461 2.89013 6.44984 2.87496C7.10817 2.87496 7.28317 2.87496 8.99984 2.87496C10.7165 2.87496 10.8915 2.87496 11.5498 2.87496C12.0651 2.89013 12.5744 2.98863 13.0582 3.16663C13.4714 3.32019 13.8446 3.56519 14.1498 3.88329C14.4518 4.18225 14.685 4.5434 14.8332 4.94163C15.0112 5.42537 15.1097 5.93473 15.1248 6.44996C15.1248 7.10829 15.1248 7.28329 15.1248 8.99996C15.1248 10.7166 15.1832 10.8916 15.1582 11.55V11.5583ZM13.8248 5.35829C13.7256 5.08911 13.5692 4.84466 13.3663 4.6418C13.1635 4.43895 12.919 4.28251 12.6498 4.18329C12.2802 4.05518 11.891 3.99312 11.4998 3.99996C10.8498 3.99996 10.6665 3.99996 8.99984 3.99996C7.33317 3.99996 7.14984 3.99996 6.49984 3.99996C6.10673 4.0038 5.71739 4.07715 5.34984 4.21663C5.08478 4.31134 4.84292 4.46139 4.64032 4.65679C4.43773 4.8522 4.27905 5.08849 4.17484 5.34996C4.05382 5.7211 3.99469 6.10962 3.99984 6.49996C3.99984 7.14996 3.99984 7.33329 3.99984 8.99996C3.99984 10.6666 3.99984 10.85 3.99984 11.5C4.0081 11.8926 4.08131 12.2812 4.2165 12.65C4.31572 12.9191 4.47216 13.1636 4.67502 13.3664C4.87787 13.5693 5.12232 13.7257 5.3915 13.825C5.74706 13.9557 6.12121 14.0289 6.49984 14.0416C7.14984 14.0416 7.33317 14.0416 8.99984 14.0416C10.6665 14.0416 10.8498 14.0416 11.4998 14.0416C11.8929 14.0378 12.2823 13.9644 12.6498 13.825C12.919 13.7257 13.1635 13.5693 13.3663 13.3664C13.5692 13.1636 13.7256 12.9191 13.8248 12.65C13.9643 12.2824 14.0377 11.8931 14.0415 11.5C14.0415 10.85 14.0415 10.6666 14.0415 8.99996C14.0415 7.33329 14.0415 7.14996 14.0415 6.49996C14.0417 6.10646 13.9683 5.71639 13.8248 5.34996V5.35829ZM8.99984 12.1833C8.58219 12.1833 8.16864 12.1009 7.78289 11.9408C7.39714 11.7807 7.04676 11.5461 6.75182 11.2504C6.45689 10.9547 6.22319 10.6037 6.06412 10.2175C5.90506 9.83137 5.82374 9.41761 5.82484 8.99996C5.82484 8.37 6.01175 7.75421 6.36191 7.23053C6.71207 6.70686 7.20973 6.29885 7.79189 6.05815C8.37406 5.81746 9.01455 5.75491 9.63228 5.87842C10.25 6.00192 10.8172 6.30593 11.2621 6.75197C11.7069 7.198 12.0095 7.76599 12.1314 8.38405C12.2532 9.0021 12.189 9.64242 11.9468 10.224C11.7046 10.8055 11.2953 11.3021 10.7707 11.6509C10.2461 11.9996 9.62979 12.1849 8.99984 12.1833ZM12.3332 6.44163C12.149 6.42213 11.9785 6.33514 11.8546 6.19743C11.7307 6.05973 11.6621 5.88104 11.6621 5.69579C11.6621 5.51055 11.7307 5.33186 11.8546 5.19415C11.9785 5.05644 12.149 4.96946 12.3332 4.94996C12.5174 4.96946 12.6879 5.05644 12.8118 5.19415C12.9357 5.33186 13.0042 5.51055 13.0042 5.69579C13.0042 5.88104 12.9357 6.05973 12.8118 6.19743C12.6879 6.33514 12.5174 6.42213 12.3332 6.44163Z" fill="white"/>
</svg>
