<svg width="18" height="14" viewBox="0 0 18 14" fill="none" xmlns="http://www.w3.org/2000/svg">
<path d="M17.3332 1.83326C16.7068 2.10501 16.0444 2.28465 15.3665 2.3666C16.0816 1.93936 16.6176 1.26725 16.8748 0.474931C16.2028 0.874983 15.4671 1.15684 14.6998 1.30826C14.187 0.752074 13.504 0.381844 12.758 0.25564C12.012 0.129436 11.2453 0.254396 10.578 0.610922C9.9107 0.967448 9.38062 1.53537 9.07087 2.22563C8.76113 2.91588 8.68925 3.68942 8.8665 4.42493C7.50769 4.3562 6.17854 4.00239 4.96538 3.38648C3.75223 2.77057 2.68221 1.90634 1.82484 0.84993C1.52412 1.37507 1.3661 1.96978 1.3665 2.57493C1.36544 3.13692 1.50335 3.69044 1.76797 4.18623C2.03258 4.68202 2.41569 5.10469 2.88317 5.4166C2.33982 5.40181 1.80808 5.25601 1.33317 4.9916V5.03326C1.33724 5.82067 1.61317 6.58251 2.11427 7.1899C2.61537 7.7973 3.31088 8.21297 4.08317 8.3666C3.78588 8.45707 3.47723 8.50477 3.1665 8.50826C2.95141 8.50575 2.73686 8.48625 2.52484 8.44993C2.74476 9.12727 3.17036 9.71922 3.7424 10.1434C4.31444 10.5676 5.00448 10.8029 5.7165 10.8166C4.51417 11.7627 3.02974 12.279 1.49984 12.2833C1.22128 12.2842 0.94295 12.2675 0.666504 12.2333C2.22853 13.2418 4.04885 13.7772 5.90817 13.7749C7.19125 13.7883 8.46412 13.5458 9.65243 13.0617C10.8408 12.5775 11.9207 11.8615 12.8292 10.9553C13.7377 10.0492 14.4565 8.97109 14.9436 7.78402C15.4308 6.59695 15.6765 5.3247 15.6665 4.0416C15.6665 3.89993 15.6665 3.74993 15.6665 3.59993C16.3204 3.11227 16.8844 2.51445 17.3332 1.83326Z" fill="white"/>
</svg>
