<svg width="30" height="32" viewBox="0 0 30 32" fill="none" xmlns="http://www.w3.org/2000/svg">
<g filter="url(#filter0_d_347_795)">
<path d="M10.4531 19.4062V23.8594C10.4531 25.5912 9.04431 27 7.3125 27C5.58069 27 4.17188 25.5912 4.17188 23.8594C4.17188 23.3416 4.59155 22.9219 5.10938 22.9219C5.6272 22.9219 6.04688 23.3416 6.04688 23.8594C6.04688 24.5572 6.61469 25.125 7.3125 25.125C8.01031 25.125 8.57812 24.5572 8.57812 23.8594V19.4062C8.57812 18.8884 8.9978 18.4688 9.51562 18.4688C10.0334 18.4688 10.4531 18.8884 10.4531 19.4062ZM24.8438 22.3125H23.2031C22.6853 22.3125 22.2656 22.7322 22.2656 23.25C22.2656 23.7678 22.6853 24.1875 23.2031 24.1875H23.8586C23.6459 24.7496 23.0982 25.125 22.4531 25.125C21.626 25.125 20.9531 24.4521 20.9531 23.625V21.8438C20.9531 21.0167 21.626 20.3438 22.4531 20.3438C22.9812 20.3438 23.4608 20.6136 23.736 21.0656C24.0051 21.5079 24.5819 21.6482 25.0241 21.379C25.4665 21.1097 25.6068 20.5329 25.3376 20.0907C24.7194 19.075 23.6411 18.4688 22.4531 18.4688C20.5922 18.4688 19.0781 19.9828 19.0781 21.8438V23.625C19.0781 25.4859 20.5922 27 22.4531 27C23.237 27 23.9985 26.7336 24.5975 26.2498C25.1988 25.7644 25.6128 25.0803 25.7633 24.3235C25.7752 24.2633 25.7812 24.202 25.7812 24.1406V23.25C25.7812 22.7322 25.3616 22.3125 24.8438 22.3125ZM17.7188 21.2812V21.8438C17.7188 23.3947 16.4572 24.6562 14.9062 24.6562H13.8281V26.0625C13.8281 26.5803 13.4084 27 12.8906 27C12.3728 27 11.9531 26.5803 11.9531 26.0625V19.4062C11.9531 18.8884 12.3728 18.4688 12.8906 18.4688H14.9062C16.4572 18.4688 17.7188 19.7303 17.7188 21.2812ZM15.8438 21.2812C15.8438 20.7643 15.4232 20.3438 14.9062 20.3438H13.8281V22.7812H14.9062C15.4232 22.7812 15.8438 22.3607 15.8438 21.8438V21.2812ZM22.7344 9.44843V15.6562C22.7344 16.1741 23.1541 16.5938 23.6719 16.5938C24.1897 16.5938 24.6094 16.1741 24.6094 15.6562V9.44843C24.6094 8.69733 24.3168 7.99109 23.7856 7.45972L20.1497 3.82379C19.6185 3.2926 18.9122 3 18.1609 3H9.33344C7.26562 3 5.58344 4.68219 5.58344 6.75V15.6562C5.58344 16.1741 6.00311 16.5938 6.52094 16.5938C7.03857 16.5938 7.45844 16.1741 7.45844 15.6562V6.75C7.45844 5.71619 8.29944 4.875 9.33344 4.875H18.1609C18.4113 4.875 18.6467 4.97241 18.8238 5.14966L22.4597 8.78558C22.6368 8.96265 22.7344 9.19812 22.7344 9.44843Z" fill="white"/>
<path d="M17.8913 9.94558C17.4653 9.51957 16.7746 9.51957 16.3486 9.94558L14.3539 11.9403V9.94558C14.3434 9.3432 13.8466 8.86335 13.2442 8.87384C12.6566 8.88403 12.1827 9.35795 12.1725 9.94558V14.5738C12.1717 15.1762 12.6595 15.6652 13.262 15.666C13.2629 15.666 13.2638 15.666 13.2647 15.666L17.8929 15.666C18.4957 15.6656 18.984 15.1765 18.9836 14.5738C18.9832 13.971 18.4942 13.4826 17.8914 13.483L15.8966 13.483L17.8914 11.4883C18.3173 11.0623 18.3173 10.3716 17.8913 9.94558Z" fill="white"/>
</g>
<defs>
<filter id="filter0_d_347_795" x="0.171875" y="0" width="29.6094" height="32" filterUnits="userSpaceOnUse" color-interpolation-filters="sRGB">
<feFlood flood-opacity="0" result="BackgroundImageFix"/>
<feColorMatrix in="SourceAlpha" type="matrix" values="0 0 0 0 0 0 0 0 0 0 0 0 0 0 0 0 0 0 127 0" result="hardAlpha"/>
<feOffset dy="1"/>
<feGaussianBlur stdDeviation="2"/>
<feComposite in2="hardAlpha" operator="out"/>
<feColorMatrix type="matrix" values="0 0 0 0 0.484505 0 0 0 0 0.470208 0 0 0 0 0.508333 0 0 0 0.75 0"/>
<feBlend mode="normal" in2="BackgroundImageFix" result="effect1_dropShadow_347_795"/>
<feBlend mode="normal" in="SourceGraphic" in2="effect1_dropShadow_347_795" result="shape"/>
</filter>
</defs>
</svg>
