<svg width="16" height="16" viewBox="0 0 16 16" fill="none" xmlns="http://www.w3.org/2000/svg">
<path d="M8.88393 8.00006L15.8169 1.06701C16.061 0.822912 16.061 0.427163 15.8169 0.183101C15.5728 -0.0609616 15.1771 -0.0609929 14.933 0.183101L7.99999 7.11616L1.06697 0.183101C0.822881 -0.0609929 0.427132 -0.0609929 0.18307 0.183101C-0.0609921 0.427194 -0.0610233 0.822944 0.18307 1.06701L7.11609 8.00003L0.18307 14.9331C-0.0610233 15.1772 -0.0610233 15.5729 0.18307 15.817C0.305101 15.939 0.465069 16 0.625038 16C0.785006 16 0.944943 15.939 1.06701 15.817L7.99999 8.88396L14.933 15.817C15.055 15.939 15.215 16 15.375 16C15.5349 16 15.6949 15.939 15.8169 15.817C16.061 15.5729 16.061 15.1771 15.8169 14.9331L8.88393 8.00006Z" fill="#A39EA9"/>
</svg>
