<svg width="20" height="20" viewBox="0 0 20 20" fill="none" xmlns="http://www.w3.org/2000/svg">
<path d="M9.99988 13.3333C10.6592 13.3333 11.3036 13.1378 11.8518 12.7715C12.3999 12.4053 12.8272 11.8847 13.0795 11.2756C13.3318 10.6665 13.3978 9.99626 13.2692 9.34966C13.1405 8.70306 12.8231 8.10911 12.3569 7.64294C11.8907 7.17676 11.2968 6.85929 10.6502 6.73068C10.0036 6.60206 9.33336 6.66807 8.72427 6.92036C8.11518 7.17265 7.59459 7.5999 7.22832 8.14806C6.86205 8.69622 6.66655 9.34069 6.66655 9.99996C6.66655 10.884 7.01774 11.7319 7.64286 12.357C8.26798 12.9821 9.11583 13.3333 9.99988 13.3333ZM9.99988 8.33329C10.3295 8.33329 10.6518 8.43104 10.9258 8.61418C11.1999 8.79731 11.4135 9.05761 11.5397 9.36216C11.6658 9.6667 11.6988 10.0018 11.6345 10.3251C11.5702 10.6484 11.4115 10.9454 11.1784 11.1785C10.9453 11.4116 10.6483 11.5703 10.325 11.6346C10.0017 11.6989 9.66662 11.6659 9.36208 11.5398C9.05753 11.4136 8.79724 11.2 8.6141 10.9259C8.43096 10.6518 8.33322 10.3296 8.33322 9.99996C8.33322 9.55793 8.50881 9.13401 8.82137 8.82145C9.13393 8.50889 9.55786 8.33329 9.99988 8.33329Z" fill="#EA1C4F"/>
<path d="M2.91657 10.7309L2.08324 11.2134C1.89363 11.3227 1.72742 11.4684 1.59411 11.642C1.46079 11.8156 1.36298 12.0138 1.30626 12.2252C1.24954 12.4366 1.23502 12.6571 1.26352 12.8741C1.29203 13.0912 1.36301 13.3004 1.4724 13.49L2.71324 15.6384C2.82254 15.8283 2.96821 15.9947 3.14192 16.1283C3.31562 16.2618 3.51396 16.3598 3.72557 16.4166C3.93718 16.4734 4.15792 16.488 4.37516 16.4594C4.59239 16.4308 4.80186 16.3597 4.99157 16.25L5.83324 15.7634C5.96168 15.6909 6.10698 15.6535 6.25447 15.6551C6.40195 15.6568 6.5464 15.6972 6.67324 15.7725C6.79849 15.845 6.90252 15.9492 6.97491 16.0745C7.0473 16.1998 7.08552 16.342 7.08574 16.4867V17.5C7.08574 17.9421 7.26133 18.366 7.57389 18.6785C7.88645 18.9911 8.31038 19.1667 8.7524 19.1667H11.2524C11.6944 19.1667 12.1184 18.9911 12.4309 18.6785C12.7435 18.366 12.9191 17.9421 12.9191 17.5V16.485C12.9213 16.3396 12.9612 16.1973 13.0349 16.0719C13.1085 15.9465 13.2135 15.8424 13.3394 15.7697C13.4653 15.697 13.608 15.6582 13.7534 15.6571C13.8988 15.656 14.042 15.6926 14.1691 15.7634L15.0099 16.2484C15.3927 16.4694 15.8476 16.5293 16.2746 16.4149C16.7015 16.3005 17.0655 16.0212 17.2866 15.6384L18.5266 13.49C18.636 13.3004 18.7069 13.0912 18.7354 12.8741C18.764 12.6571 18.7494 12.4366 18.6927 12.2252C18.636 12.0138 18.5382 11.8156 18.4049 11.642C18.2715 11.4684 18.1053 11.3227 17.9157 11.2134L17.0824 10.7309C16.9532 10.6556 16.8464 10.5471 16.7731 10.4167C16.6999 10.2863 16.6628 10.1387 16.6657 9.9892C16.666 9.84321 16.7047 9.69985 16.7778 9.57349C16.8509 9.44713 16.956 9.3422 17.0824 9.2692L17.9157 8.7867C18.1053 8.67733 18.2715 8.53169 18.4049 8.35808C18.5382 8.18447 18.636 7.9863 18.6927 7.77489C18.7494 7.56348 18.764 7.34296 18.7354 7.12594C18.7069 6.90891 18.636 6.69963 18.5266 6.51004L17.2849 4.36171C17.1756 4.17203 17.03 4.00574 16.8564 3.87235C16.6829 3.73895 16.4847 3.64105 16.2733 3.58425C16.0619 3.52745 15.8413 3.51286 15.6243 3.5413C15.4072 3.56975 15.1979 3.64068 15.0082 3.75004L14.1666 4.23587C14.0395 4.30694 13.8962 4.34377 13.7506 4.34274C13.605 4.34172 13.4622 4.30288 13.3361 4.23002C13.2101 4.15717 13.1052 4.05281 13.0316 3.92717C12.958 3.80154 12.9184 3.65894 12.9166 3.51337V2.50004C12.9166 2.05801 12.741 1.63409 12.4284 1.32153C12.1159 1.00897 11.6919 0.833374 11.2499 0.833374H8.7499C8.30788 0.833374 7.88395 1.00897 7.57139 1.32153C7.25883 1.63409 7.08324 2.05801 7.08324 2.50004V3.57837C7.08321 3.70344 7.05023 3.82629 6.98762 3.93455C6.925 4.04281 6.83496 4.13265 6.72657 4.19504L6.59824 4.26921C6.48978 4.33086 6.36716 4.36328 6.2424 4.36328C6.11764 4.36328 5.99503 4.33086 5.88657 4.26921L4.99157 3.75004C4.80199 3.64048 4.59268 3.56935 4.37561 3.54071C4.15853 3.51207 3.93793 3.52649 3.72643 3.58314C3.51492 3.63979 3.31665 3.73756 3.14295 3.87086C2.96924 4.00417 2.82351 4.17039 2.71407 4.36004L1.47407 6.51087C1.25326 6.89349 1.19339 7.34813 1.30762 7.77487C1.42184 8.20161 1.70082 8.56555 2.08324 8.7867L2.91657 9.26837C3.0457 9.34398 3.15237 9.45262 3.2256 9.58311C3.29883 9.71361 3.33598 9.86125 3.33324 10.0109C3.33345 10.157 3.29502 10.3005 3.22184 10.427C3.14866 10.5534 3.04335 10.6583 2.91657 10.7309ZM3.7499 7.82504L2.91657 7.34337L4.15824 5.19504L5.05324 5.7117C5.41456 5.91934 5.824 6.02861 6.24074 6.02861C6.65747 6.02861 7.06692 5.91934 7.42824 5.7117L7.55657 5.63837C7.91843 5.42955 8.21911 5.12936 8.42854 4.76785C8.63796 4.40633 8.74878 3.99616 8.7499 3.57837V2.50004H11.2499V3.51337C11.2516 3.95157 11.3682 4.38165 11.588 4.76074C11.8078 5.13983 12.1231 5.45468 12.5025 5.6739C12.8819 5.89312 13.3122 6.00905 13.7504 6.01013C14.1886 6.0112 14.6194 5.89739 14.9999 5.68004L15.8391 5.19504L17.0832 7.34337L16.2499 7.82504C15.8705 8.04724 15.5558 8.36486 15.3371 8.74635C15.1184 9.12783 15.0033 9.5599 15.0033 9.99962C15.0033 10.4393 15.1184 10.8714 15.3371 11.2529C15.5558 11.6344 15.8705 11.952 16.2499 12.1742L17.0832 12.6567L15.8432 14.805L14.9999 14.32C14.6194 14.1027 14.1886 13.9889 13.7504 13.9899C13.3122 13.991 12.8819 14.1069 12.5025 14.3262C12.1231 14.5454 11.8078 14.8602 11.588 15.2393C11.3682 15.6184 11.2516 16.0485 11.2499 16.4867V17.5H8.7499V16.4867C8.74867 16.0483 8.63241 15.6179 8.41275 15.2385C8.19308 14.8592 7.8777 14.5441 7.49811 14.3247C7.11852 14.1054 6.68802 13.9896 6.24963 13.9887C5.81124 13.9879 5.38031 14.1021 4.9999 14.32L4.16074 14.805L2.91657 12.6567L3.7499 12.1742C4.12935 11.952 4.44405 11.6344 4.66274 11.2529C4.88143 10.8714 4.99649 10.4393 4.99649 9.99962C4.99649 9.5599 4.88143 9.12783 4.66274 8.74635C4.44405 8.36486 4.12935 8.04724 3.7499 7.82504Z" fill="#EA1C4F"/>
</svg>
