<svg width="24" height="18" viewBox="0 0 24 18" fill="none" xmlns="http://www.w3.org/2000/svg">
<path d="M8.875 4.87097C8.875 5.38879 9.29468 5.80847 9.8125 5.80847C10.3303 5.80847 10.75 5.38879 10.75 4.87097C10.75 4.35315 10.3303 3.93347 9.8125 3.93347C9.29468 3.93347 8.875 4.35315 8.875 4.87097Z" fill="#A39EA9"/>
<path fill-rule="evenodd" clip-rule="evenodd" d="M16.4588 16.3594C16.4588 16.8772 16.0391 17.2969 15.5213 17.2969H3.75C1.68219 17.2969 0 15.6147 0 13.5469V4.45313C0 2.38532 1.68219 0.703125 3.75 0.703125H20.25C22.3178 0.703125 24 2.38531 24 4.45312V13.5469C24 15.6147 22.3178 17.2969 20.25 17.2969C19.7322 17.2969 19.3125 16.8772 19.3125 16.3594C19.3125 15.8416 19.7322 15.4219 20.25 15.4219C21.2838 15.4219 22.125 14.5807 22.125 13.5469V11.5685C21.9853 11.5217 21.8545 11.4417 21.7449 11.3285L17.7285 7.17972L12.0525 13.1327C11.8776 13.3161 11.6366 13.4221 11.3831 13.4269C11.1297 13.4318 10.8848 13.3351 10.703 13.1585L7.70678 10.2479L2.37732 14.8228C2.71992 15.1911 3.20854 15.4219 3.75 15.4219L15.5213 15.4219C16.0391 15.4219 16.4588 15.8416 16.4588 16.3594ZM1.875 12.75L7.12758 8.24105C7.50044 7.92098 8.05585 7.93808 8.40831 8.28047L11.3391 11.1275L17.0358 5.15295C17.2142 4.96583 17.4612 4.85951 17.7197 4.85853C17.9783 4.85755 18.226 4.96199 18.4059 5.14775L22.125 8.98947V4.45312C22.125 3.41931 21.2838 2.57812 20.25 2.57812L3.75 2.57813C2.71619 2.57813 1.875 3.41931 1.875 4.45313L1.875 12.75Z" fill="#A39EA9"/>
</svg>
