<svg width="21" height="20" viewBox="0 0 21 20" fill="none" xmlns="http://www.w3.org/2000/svg">
<path d="M11.8808 15.4629C10.7851 15.4629 9.75511 15.0363 8.98043 14.2615C8.6753 13.9564 8.6753 13.4617 8.98043 13.1566L13.6762 8.46091C13.8227 8.31442 14.0215 8.23207 14.2287 8.23207C14.4359 8.23207 14.6346 8.31438 14.7811 8.46091C16.3803 10.0601 16.3803 12.6623 14.7811 14.2616C14.0064 15.0363 12.9764 15.4629 11.8808 15.4629ZM10.7239 13.623C11.0776 13.8043 11.4718 13.9004 11.8808 13.9004C12.559 13.9004 13.1966 13.6362 13.6762 13.1567C14.4736 12.3593 14.6288 11.1593 14.1417 10.2052L10.7239 13.623ZM18.1469 8.59189C17.5449 8.59193 16.943 8.36407 16.4847 7.90831L14.5583 5.99278C14.3797 5.81519 14.2977 5.56245 14.3379 5.31385C14.3782 5.06525 14.5358 4.8513 14.7613 4.73918C14.7947 4.72258 15.5898 4.33003 16.5507 4.09115C18.0141 3.72739 19.1105 3.89525 19.8092 4.59004C20.2546 5.03294 20.5 5.62214 20.5 6.24915C20.5 6.87617 20.2546 7.46537 19.8092 7.90831C19.351 8.36399 18.7489 8.59185 18.1469 8.59189ZM16.5069 5.72679L17.5865 6.8003C17.8956 7.1077 18.3984 7.10766 18.7075 6.8003C18.8558 6.65284 18.9374 6.45713 18.9374 6.24919C18.9374 6.04126 18.8558 5.84555 18.7075 5.69808C18.4377 5.42987 17.7974 5.39479 16.9506 5.60191C16.7973 5.63941 16.648 5.68218 16.5069 5.72679ZM3.04859 15.4869C3.41622 15.261 3.53107 14.7798 3.30512 14.4122C1.25428 11.0752 1.75925 6.80718 4.53321 4.03322C7.30713 1.25926 11.5752 0.754284 14.9122 2.80513C15.2799 3.03108 15.761 2.91619 15.9869 2.5486C16.2129 2.18097 16.098 1.69982 15.7304 1.47388C13.8477 0.316848 11.5946 -0.184848 9.3865 0.0610972C8.28283 0.18407 7.21643 0.486502 6.21694 0.959955C5.18273 1.44993 4.24449 2.11218 3.42833 2.92834C2.61217 3.7445 1.94992 4.68273 1.45999 5.71695C0.986493 6.7164 0.6841 7.7828 0.561127 8.88647C0.315103 11.0947 0.816839 13.3477 1.97391 15.2304C2.12145 15.4704 2.37775 15.6027 2.6403 15.6027C2.77976 15.6027 2.92105 15.5653 3.04859 15.4869ZM10.8457 19.994C13.385 19.9066 15.7734 18.8685 17.571 17.071C19.3685 15.2734 20.4066 12.885 20.4941 10.3457C20.5089 9.91447 20.1714 9.5529 19.7401 9.53801C19.3094 9.52348 18.9473 9.86072 18.9324 10.2919C18.8587 12.4343 17.9828 14.4494 16.4661 15.966C14.9494 17.4828 12.9343 18.3587 10.792 18.4324C10.3608 18.4473 10.0232 18.8089 10.0381 19.2401C10.0526 19.6622 10.3993 19.9945 10.8184 19.9945C10.8274 19.9945 10.8366 19.9943 10.8457 19.994ZM6.82731 20C6.82727 20 6.82731 20 6.82731 20C6.2003 19.9999 5.6111 19.7546 5.16819 19.3092C4.47337 18.6104 4.30551 17.5141 4.66931 16.0507C4.90819 15.0898 5.30074 14.2947 5.31734 14.2613C5.42945 14.0358 5.64341 13.8782 5.89201 13.8379C6.14057 13.7977 6.39335 13.8797 6.57094 14.0582L8.48651 15.9846C9.39795 16.9013 9.39795 18.3926 8.48651 19.3092C8.04353 19.7546 7.45425 20 6.82731 20ZM6.30491 16.0069C6.2603 16.148 6.21753 16.2973 6.18003 16.4506C5.97295 17.2974 6.00799 17.9377 6.27616 18.2074C6.42363 18.3558 6.61934 18.4374 6.82727 18.4374C7.03521 18.4374 7.23092 18.3558 7.37839 18.2074C7.68574 17.8984 7.68574 17.3955 7.37839 17.0865L6.30491 16.0069ZM11.3611 8.05285L13.3955 6.02106C13.7008 5.71617 13.7012 5.22146 13.3963 4.91618C13.0914 4.61086 12.5967 4.61051 12.2914 4.91544L11.1921 6.01329L10.9376 5.13388C10.8177 4.71942 10.3846 4.48058 9.97 4.60054C9.55553 4.72047 9.31673 5.15373 9.4367 5.56819L10.0586 7.71717C10.1354 7.98253 10.3466 8.18762 10.6141 8.25656C10.6786 8.2732 10.744 8.28129 10.809 8.28129C11.0134 8.28133 11.2127 8.20098 11.3611 8.05285ZM6.40292 12.9747L8.39518 10.9865C8.59179 10.7904 8.66945 10.5045 8.59917 10.2358C8.52889 9.96713 8.32127 9.75591 8.0538 9.6811L5.94435 9.09101C5.52891 8.97487 5.09772 9.21738 4.98147 9.63294C4.86522 10.0485 5.10784 10.4796 5.5234 10.5958L6.34448 10.8255L5.29921 11.8686C4.99381 12.1734 4.99327 12.6681 5.29808 12.9735C5.4507 13.1264 5.65087 13.2029 5.85111 13.2029C6.05072 13.2029 6.25042 13.1268 6.40292 12.9747Z" fill="white"/>
</svg>
