<svg width="14" height="14" viewBox="0 0 14 14" fill="none" xmlns="http://www.w3.org/2000/svg">
<path d="M6.99989 14C6.99615 14 6.99273 14 6.98889 14C6.68693 13.9996 6.44244 13.7543 6.44287 13.4523C6.4434 13.1505 6.68811 12.9062 6.98974 12.9062H6.99989C10.2269 12.9062 12.8754 10.2846 12.9059 7.05746C12.919 5.68141 12.449 4.33751 11.5823 3.27335C11.2078 2.81352 11.2406 2.15161 11.6586 1.73355L12.2993 1.09514L10.2475 1.09375C10.2474 1.09375 10.2474 1.09375 10.2473 1.09375C10.1512 1.09375 10.0878 1.14267 10.0587 1.17194C10.0294 1.2011 9.98036 1.26454 9.98047 1.36078L9.98164 3.42513C10.1917 3.28734 10.4766 3.30891 10.6636 3.49188C10.8796 3.70305 10.8833 4.04933 10.6722 4.2652L10.4577 4.48459C10.4562 4.48598 10.4548 4.48737 10.4534 4.48886C10.1907 4.75162 9.79878 4.82948 9.45517 4.68742C9.11113 4.54515 8.88853 4.21265 8.88811 3.84052L8.88672 1.36142C8.88651 0.99762 9.02803 0.655716 9.28523 0.398514C9.54222 0.141525 9.88391 0 10.2473 0H10.2482L12.727 0.00170898C13.0994 0.00202942 13.4318 0.224625 13.5741 0.568665C13.7162 0.912277 13.6382 1.30417 13.3755 1.56693L12.4313 2.50772C12.4121 2.52684 12.4115 2.55942 12.4305 2.5827C13.4578 3.84436 14.0152 5.43724 13.9997 7.06783C13.9634 10.8924 10.8242 13.9998 6.99989 14ZM4.742 13.6016C4.99931 13.3444 5.14084 13.0024 5.14062 12.6386L5.13923 10.1595C5.13881 9.78735 4.91621 9.45485 4.57217 9.31258C4.22856 9.17041 3.83677 9.24838 3.57391 9.51114C3.57252 9.51253 3.57103 9.51402 3.56964 9.51541L3.35516 9.7348C3.14389 9.95067 3.14773 10.297 3.3637 10.5081C3.55073 10.6911 3.83549 10.7127 4.0457 10.5748L4.04687 12.6392C4.04698 12.7355 3.99795 12.7988 3.96869 12.8281C3.93953 12.8572 3.87619 12.9062 3.78006 12.9062C3.77995 12.9062 3.77995 12.9062 3.77984 12.9062L1.72789 12.9049L2.36875 12.2663C2.78671 11.8484 2.81939 11.1865 2.44491 10.7265C1.57835 9.66238 1.10827 8.31859 1.1213 6.94254C1.15196 3.71544 3.80035 1.09375 7.02745 1.09375H7.03749C7.33913 1.09375 7.58394 0.849472 7.58436 0.547729C7.5849 0.245667 7.34041 0.000534056 7.03834 0C7.03461 0 7.03119 0 7.02745 0C3.20306 0 0.0639741 3.10757 0.0276581 6.93217C0.0121704 8.56287 0.569407 10.1556 1.59683 11.4173C1.61584 11.4406 1.6152 11.4732 1.59608 11.4923L0.651758 12.4331C0.389002 12.6958 0.311029 13.0877 0.453195 13.4313C0.595469 13.7754 0.927973 13.998 1.30032 13.9983L3.77909 14H3.78006C4.14343 14 4.48501 13.8585 4.742 13.6016Z" fill="#424DE4"/>
</svg>
