<svg width="76" height="84" viewBox="0 0 76 84" fill="none" xmlns="http://www.w3.org/2000/svg">
<path d="M32.6091 1.44454C35.9451 -0.481515 40.0553 -0.481515 43.3913 1.44454L70.4267 17.0534C73.7628 18.9795 75.8178 22.539 75.8178 26.3911V57.6089C75.8178 61.461 73.7628 65.0205 70.4267 66.9466L43.3913 82.5555C40.0553 84.4815 35.9451 84.4815 32.6091 82.5555L5.57373 66.9466C2.2377 65.0205 0.182617 61.461 0.182617 57.6089V26.3911C0.182617 22.539 2.2377 18.9795 5.57373 17.0534L32.6091 1.44454Z" fill="#F2F1F6"/>
<path d="M18 33.1111C18 26.9746 22.9746 22 29.1111 22H46.8889C53.0254 22 58 26.9746 58 33.1111V50.8889C58 57.0254 53.0254 62 46.8889 62H29.1111C22.9746 62 18 57.0254 18 50.8889V33.1111Z" fill="url(#paint0_linear_0_1)"/>
<defs>
<linearGradient id="paint0_linear_0_1" x1="47.9843" y1="21.4245" x2="25.1814" y2="60.7022" gradientUnits="userSpaceOnUse">
<stop stop-color="#BEBBC3"/>
<stop offset="1" stop-color="#A39EA9"/>
<stop offset="1" stop-color="#A39EA9"/>
</linearGradient>
</defs>
</svg>
