<svg width="32" height="30" viewBox="0 0 32 30" fill="none" xmlns="http://www.w3.org/2000/svg">
<g filter="url(#filter0_d_347_769)">
<path d="M21.8559 9.71254C19.728 9.71254 17.6964 8.47149 15.7317 7.27132C13.924 6.167 12.0547 5.02509 10.3225 5.02509C6.99351 5.02509 5.74833 6.9027 5.73671 6.92163C5.46591 7.36296 4.8887 7.50114 4.44733 7.2304C4.00601 6.9596 3.86778 6.38234 4.13857 5.94102C4.20851 5.82707 5.90189 3.15012 10.3225 3.15012C12.5821 3.15012 14.6801 4.4318 16.7091 5.67126C18.5328 6.78532 20.2554 7.83756 21.8559 7.83756C23.2226 7.83756 24.3924 7.501 25.3329 6.83726C25.9762 6.38319 26.2603 5.94599 26.2629 5.94177C26.5333 5.50017 27.1104 5.36132 27.5519 5.63179C27.9935 5.90221 28.1323 6.47928 27.8619 6.92084C27.7921 7.03488 26.1037 9.71254 21.8559 9.71254ZM27.8619 12.1239C28.1323 11.6823 27.9935 11.1053 27.5519 10.8349C27.1104 10.5644 26.5333 10.7032 26.2629 11.1448C26.2603 11.1491 25.9762 11.5863 25.3329 12.0403C24.3924 12.7041 23.2226 13.0406 21.8559 13.0406C20.2554 13.0406 18.5328 11.9884 16.7091 10.8743C14.6801 9.63487 12.5821 8.35318 10.3225 8.35318C5.90189 8.35318 4.20851 11.0301 4.13857 11.1441C3.86778 11.5854 4.00601 12.1626 4.44733 12.4335C4.8887 12.7042 5.46591 12.5661 5.73671 12.1247C5.74833 12.1058 6.99351 10.2282 10.3225 10.2282C12.0547 10.2282 13.924 11.3701 15.7317 12.4744C17.6964 13.6746 19.728 14.9591 21.8559 14.9591C26.1037 14.9591 27.7921 12.2379 27.8619 12.1239ZM27.8619 17.2801C28.1323 16.8385 27.9935 16.2615 27.5519 15.991C27.1104 15.7206 26.5333 15.8594 26.2629 16.301C26.2603 16.3052 25.9762 16.7424 25.3329 17.1965C24.3924 17.8603 23.2226 18.1968 21.8559 18.1968C20.2554 18.1968 18.5328 17.1446 16.7091 16.0305C14.6801 14.7911 12.5821 13.5094 10.3225 13.5094C5.90189 13.5094 4.20851 16.1863 4.13857 16.3003C3.86778 16.7416 4.00601 17.3188 4.44733 17.5896C4.8887 17.8604 5.46591 17.7223 5.73671 17.2809C5.74833 17.2619 6.99351 15.3843 10.3225 15.3843C12.0547 15.3843 13.924 16.5263 15.7317 17.6306C17.6964 18.8307 19.728 20.1153 21.8559 20.1153C26.1037 20.1153 27.7921 17.3941 27.8619 17.2801ZM20.4333 24.1404C20.625 23.6594 20.3906 23.114 19.9097 22.9223C18.8754 22.51 17.8231 21.8672 16.7091 21.1867C14.6801 19.9472 12.5821 18.6656 10.3225 18.6656C5.90189 18.6656 4.20851 21.3425 4.13857 21.4565C3.86778 21.8978 4.00601 22.475 4.44733 22.7458C4.8887 23.0165 5.46591 22.8784 5.73671 22.4371C5.74833 22.4181 6.99351 20.5405 10.3225 20.5405C12.0547 20.5405 13.9239 21.6824 15.7317 22.7867C16.8633 23.478 18.0334 24.1929 19.2153 24.664C19.3292 24.7095 19.4466 24.731 19.5622 24.7309C19.9346 24.7309 20.287 24.5074 20.4333 24.1404ZM27.9999 21.9434C27.9999 21.4256 27.5802 21.0059 27.0624 21.0059C26.7189 21.0059 26.4194 21.1912 26.2562 21.4667C26.1591 21.609 25.4912 22.5205 23.9975 23.0237C23.5068 23.189 23.243 23.7208 23.4084 24.2115C23.5402 24.6029 23.9053 24.8499 24.2967 24.8499C24.3959 24.8499 24.4969 24.834 24.5961 24.8005C26.8608 24.0376 27.8221 22.5013 27.8619 22.4363L27.8596 22.4349C27.948 22.2919 27.9999 22.1239 27.9999 21.9434Z" fill="white"/>
</g>
<defs>
<filter id="filter0_d_347_769" x="0" y="0.150116" width="32" height="29.6998" filterUnits="userSpaceOnUse" color-interpolation-filters="sRGB">
<feFlood flood-opacity="0" result="BackgroundImageFix"/>
<feColorMatrix in="SourceAlpha" type="matrix" values="0 0 0 0 0 0 0 0 0 0 0 0 0 0 0 0 0 0 127 0" result="hardAlpha"/>
<feOffset dy="1"/>
<feGaussianBlur stdDeviation="2"/>
<feComposite in2="hardAlpha" operator="out"/>
<feColorMatrix type="matrix" values="0 0 0 0 0.484505 0 0 0 0 0.470208 0 0 0 0 0.508333 0 0 0 0.75 0"/>
<feBlend mode="normal" in2="BackgroundImageFix" result="effect1_dropShadow_347_769"/>
<feBlend mode="normal" in="SourceGraphic" in2="effect1_dropShadow_347_769" result="shape"/>
</filter>
</defs>
</svg>
