<svg width="18" height="24" viewBox="0 0 18 24" fill="none" xmlns="http://www.w3.org/2000/svg">
<path d="M16.3594 16.4588C16.8772 16.4588 17.2969 16.0391 17.2969 15.5213V3.75C17.2969 1.68219 15.6147 0 13.5469 0H4.45312C2.38531 0 0.703125 1.68219 0.703125 3.75V20.25C0.703125 22.3178 2.38531 24 4.45312 24H13.5469C15.6147 24 17.2969 22.3178 17.2969 20.25C17.2969 19.7322 16.8772 19.3125 16.3594 19.3125C15.8416 19.3125 15.4219 19.7322 15.4219 20.25C15.4219 21.2838 14.5807 22.125 13.5469 22.125H4.45312C3.41931 22.125 2.57812 21.2838 2.57812 20.25V17.3974L5.82019 13.3987L7.03967 14.7446C7.22241 14.9464 7.48389 15.0582 7.75598 15.0524C8.02826 15.046 8.28424 14.9218 8.45746 14.7118L12.6931 9.57971L15.4219 12.8254V15.5213C15.4219 16.0391 15.8416 16.4588 16.3594 16.4588ZM13.4041 7.51172C13.225 7.29877 12.9598 7.17792 12.6823 7.17755C12.4039 7.17883 12.1404 7.30371 11.9634 7.51831L7.70142 12.6824L6.47552 11.3295C6.29169 11.1266 6.02893 11.0147 5.755 11.0219C5.48145 11.0292 5.22491 11.1559 5.05243 11.3685L2.57812 14.4203V3.75C2.57812 2.71619 3.41931 1.875 4.45312 1.875H13.5469C14.5807 1.875 15.4219 2.71619 15.4219 3.75V9.91168L13.4041 7.51172ZM7.26562 6.56818C7.26562 7.086 6.84595 7.50568 6.32812 7.50568C5.8103 7.50568 5.39062 7.086 5.39062 6.56818C5.39062 6.05035 5.8103 5.63068 6.32812 5.63068C6.84595 5.63068 7.26562 6.05035 7.26562 6.56818Z" fill="#A39EA9"/>
</svg>
