<svg width="14" height="14" viewBox="0 0 14 14" fill="none" xmlns="http://www.w3.org/2000/svg">
<path fill-rule="evenodd" clip-rule="evenodd" d="M7 13.125C10.3827 13.125 13.125 10.3827 13.125 7C13.125 3.61726 10.3827 0.875 7 0.875C3.61726 0.875 0.875 3.61726 0.875 7C0.875 10.3827 3.61726 13.125 7 13.125ZM7 14C10.866 14 14 10.866 14 7C14 3.13401 10.866 0 7 0C3.13401 0 0 3.13401 0 7C0 10.866 3.13401 14 7 14Z" fill="#424DE4"/>
<path d="M6.59056 11.4529C6.37006 11.4529 6.1904 11.3916 6.05156 11.2691C5.91273 11.1466 5.85148 10.9629 5.86781 10.7179L6.25981 5.97713C6.27615 5.7403 6.3619 5.56472 6.51706 5.45038C6.67223 5.32788 6.86006 5.26663 7.08056 5.26663C7.30106 5.26663 7.47665 5.32788 7.60731 5.45038C7.74615 5.56472 7.8074 5.7403 7.79106 5.97713L7.39906 10.7179C7.38273 10.9629 7.29698 11.1466 7.14181 11.2691C6.98665 11.3916 6.8029 11.4529 6.59056 11.4529ZM7.22756 4.17638C6.9499 4.17638 6.7294 4.10288 6.56606 3.95588C6.40273 3.80072 6.32106 3.60063 6.32106 3.35563C6.32106 3.11063 6.40273 2.91463 6.56606 2.76763C6.7294 2.62063 6.9499 2.54713 7.22756 2.54713C7.49706 2.54713 7.71348 2.62063 7.87681 2.76763C8.04831 2.91463 8.13406 3.11063 8.13406 3.35563C8.13406 3.60063 8.0524 3.80072 7.88906 3.95588C7.72573 4.10288 7.50523 4.17638 7.22756 4.17638Z" fill="#424DE4"/>
</svg>
