<svg width="17" height="20" viewBox="0 0 17 20" fill="none" xmlns="http://www.w3.org/2000/svg">
<path d="M7.5717 15.5168C7.47328 15.6148 7.45864 15.7285 7.45864 15.7877C7.45864 15.8467 7.47328 15.9605 7.5717 16.0585L10.193 18.667C10.4985 18.9708 10.4996 19.4647 10.1958 19.7702C10.0433 19.9232 9.84313 20 9.64278 20C9.4438 20 9.24468 19.9243 9.09255 19.7729L6.47124 17.1643C6.10182 16.7969 5.89842 16.308 5.89842 15.7877C5.89842 15.2673 6.10182 14.7784 6.47124 14.411L9.09255 11.8024C9.39788 11.4986 9.8918 11.4998 10.1958 11.8051C10.4996 12.1106 10.4985 12.6044 10.193 12.9083L7.5717 15.5168ZM15.9347 14.3806L13.3133 11.7722C13.008 11.4682 12.514 11.4694 12.2101 11.7748C11.9063 12.0802 11.9075 12.5742 12.2128 12.878L14.8341 15.4865C14.9325 15.5844 14.9472 15.6982 14.9472 15.7573C14.9472 15.8163 14.9325 15.9302 14.8341 16.0281L12.2128 18.6366C11.9075 18.9406 11.9063 19.4345 12.2101 19.7398C12.3625 19.893 12.5629 19.9696 12.763 19.9696C12.962 19.9696 13.1612 19.894 13.3133 19.7426L15.9347 17.1339C16.304 16.7665 16.5074 16.2776 16.5074 15.7573C16.5074 15.237 16.304 14.7482 15.9347 14.3806Z" fill="#EA1C4F"/>
<path d="M14.9449 5.37369V10.5469C14.9449 10.9784 15.2946 11.3281 15.7261 11.3281C16.1576 11.3281 16.5074 10.9784 16.5074 10.5469V5.37369C16.5074 4.74777 16.2635 4.15924 15.8209 3.71643L12.7909 0.686493C12.3483 0.243835 11.7597 0 11.1337 0H3.77739C2.05422 0 0.652393 1.40183 0.652393 3.125L0.652344 19.2187C0.652344 19.6503 1.00208 20 1.43359 20C1.86496 20 2.21484 19.6503 2.21484 19.2187L2.21489 3.125C2.21489 2.26349 2.91573 1.5625 3.77739 1.5625H11.1337C11.3423 1.5625 11.5385 1.64368 11.686 1.79138L14.716 4.82132C14.8635 4.96887 14.9449 5.1651 14.9449 5.37369Z" fill="#EA1C4F"/>
<path d="M7.05359 9.66173C7.4086 10.0167 7.98417 10.0167 8.33917 9.66173L10.0015 7.99945V9.66173C10.0102 10.1637 10.4242 10.5636 10.9262 10.5549C11.4159 10.5464 11.8108 10.1514 11.8193 9.66173V5.80492C11.8199 5.30284 11.4134 4.89535 10.9114 4.89471L7.05226 4.89471C6.54991 4.89508 6.14299 5.3026 6.14332 5.80492C6.14365 6.30724 6.55121 6.71419 7.05353 6.71386H8.71581L7.05353 8.37615C6.69858 8.73115 6.69858 9.30672 7.05359 9.66173Z" fill="#EA1C4F"/>
</svg>
