<svg width="21" height="20" viewBox="0 0 21 20" fill="none" xmlns="http://www.w3.org/2000/svg">
<path d="M19.7187 15.7814H18.0781L18.0781 5.54706C18.0781 4.97944 17.9278 4.43495 17.646 3.95898L20.2712 1.33383C20.5763 1.02871 20.5763 0.534022 20.2712 0.228945C19.9661 -0.0761327 19.4714 -0.0761717 19.1663 0.228945L16.5412 2.8541C16.0652 2.5723 15.5207 2.42203 14.9531 2.42203L4.71874 2.42214V0.781405C4.71874 0.349921 4.36898 0.000156255 3.93749 0.000156255C3.50601 0.000156255 3.15624 0.34996 3.15624 0.781405V2.42214H1.28125C0.849765 2.42214 0.5 2.77191 0.5 3.20339C0.5 3.63488 0.849804 3.98464 1.28125 3.98464H3.15624V14.2189C3.15624 15.942 4.55812 17.3439 6.28124 17.3439H16.5156V19.2189C16.5156 19.6504 16.8653 20.0001 17.2968 20.0001C17.7283 20.0001 18.0781 19.6504 18.0781 19.2189V17.3439H19.7187C20.1502 17.3439 20.5 16.9941 20.5 16.5626C20.5 16.1311 20.1502 15.7814 19.7187 15.7814ZM16.5156 15.7814H6.28124C5.41968 15.7814 4.71874 15.0804 4.71874 14.2189V3.98464L14.9531 3.9846C15.0917 3.9846 15.2275 4.00253 15.358 4.0373L7.29132 12.104C6.9862 12.4091 6.9862 12.9038 7.29132 13.2088C7.44385 13.3614 7.64381 13.4376 7.84374 13.4376C8.04366 13.4376 8.24362 13.3614 8.39616 13.2088L16.4629 5.14214C16.4976 5.27257 16.5156 5.40843 16.5156 5.54706V15.7814Z" fill="white"/>
</svg>
