<svg width="18" height="18" viewBox="0 0 18 18" fill="none" xmlns="http://www.w3.org/2000/svg">
<path d="M8.96484 13.8849H2.8125C1.26169 13.8849 0 12.6232 0 11.0724V6.92395C0 5.37314 1.26169 4.11145 2.8125 4.11145H8.96484C9.35318 4.11145 9.66797 4.42624 9.66797 4.81458C9.66797 5.20291 9.35318 5.5177 8.96484 5.5177H2.8125C2.03709 5.5177 1.40625 6.14855 1.40625 6.92395V11.0724C1.40625 11.8478 2.03709 12.4786 2.8125 12.4786H8.96484C9.35318 12.4786 9.66797 12.7934 9.66797 13.1818C9.66797 13.5701 9.35318 13.8849 8.96484 13.8849ZM15.1875 4.11145H14.5547C14.1664 4.11145 13.8516 4.42624 13.8516 4.81458C13.8516 5.20291 14.1664 5.5177 14.5547 5.5177H15.1875C15.9629 5.5177 16.5938 6.14855 16.5938 6.92395V11.0724C16.5938 11.8478 15.9629 12.4786 15.1875 12.4786H14.5547C14.1664 12.4786 13.8516 12.7934 13.8516 13.1818C13.8516 13.5701 14.1664 13.8849 14.5547 13.8849H15.1875C16.7383 13.8849 18 12.6232 18 11.0724V6.92395C18 5.37311 16.7383 4.11145 15.1875 4.11145ZM14.5547 16.5938C13.3916 16.5938 12.4453 15.6475 12.4453 14.4844V3.51562C12.4453 2.35252 13.3916 1.40625 14.5547 1.40625C14.943 1.40625 15.2578 1.09146 15.2578 0.703125C15.2578 0.314789 14.943 0 14.5547 0C13.4059 0 12.3841 0.553887 11.7422 1.40857C11.1002 0.553887 10.0785 0 8.92969 0C8.54135 0 8.22656 0.314789 8.22656 0.703125C8.22656 1.09146 8.54135 1.40625 8.92969 1.40625C10.0928 1.40625 11.0391 2.35252 11.0391 3.51562V14.4844C11.0391 15.6475 10.0928 16.5938 8.92969 16.5938C8.54135 16.5938 8.22656 16.9085 8.22656 17.2969C8.22656 17.6852 8.54135 18 8.92969 18C10.0785 18 11.1002 17.4461 11.7422 16.5914C12.3841 17.4461 13.4059 18 14.5547 18C14.943 18 15.2578 17.6852 15.2578 17.2969C15.2578 16.9085 14.943 16.5938 14.5547 16.5938Z" fill="#EA1C4F"/>
</svg>
