<svg width="32" height="32" viewBox="0 0 32 32" fill="none" xmlns="http://www.w3.org/2000/svg">
<g filter="url(#filter0_d_347_777)">
<path d="M17.6569 21.5555C16.3422 21.5555 15.1061 21.0435 14.1765 20.1138C13.8104 19.7477 13.8104 19.1541 14.1765 18.7879L19.8115 13.1531C19.9872 12.9773 20.2257 12.8785 20.4744 12.8785C20.7231 12.8785 20.9615 12.9772 21.1373 13.1531C23.0564 15.0721 23.0564 18.1948 21.1373 20.1139C20.2077 21.0435 18.9717 21.5555 17.6569 21.5555ZM16.2687 19.3475C16.6931 19.5652 17.1662 19.6804 17.6569 19.6804C18.4708 19.6804 19.236 19.3635 19.8115 18.788C20.7683 17.8312 20.9545 16.3911 20.3701 15.2462L16.2687 19.3475ZM25.1763 13.3102C24.4539 13.3103 23.7316 13.0369 23.1816 12.4899L20.8699 10.1913C20.6557 9.9782 20.5572 9.67491 20.6055 9.37659C20.6538 9.07827 20.843 8.82152 21.1136 8.68699C21.1536 8.66707 22.1077 8.196 23.2608 7.90935C25.0169 7.47284 26.3325 7.67427 27.171 8.50801C27.7056 9.0395 27.9999 9.74654 27.9999 10.499C27.9999 11.2514 27.7056 11.9584 27.171 12.4899C26.6212 13.0368 25.8987 13.3102 25.1763 13.3102ZM23.2082 9.87212L24.5038 11.1603C24.8747 11.5292 25.4781 11.5292 25.849 11.1603C26.0269 10.9834 26.1249 10.7485 26.1249 10.499C26.1249 10.2495 26.0269 10.0146 25.849 9.83767C25.5253 9.51581 24.7568 9.47372 23.7407 9.72226C23.5568 9.76726 23.3776 9.81859 23.2082 9.87212ZM7.05831 21.5843C7.49947 21.3132 7.63728 20.7358 7.36615 20.2947C4.90513 16.2902 5.5111 11.1686 8.83986 7.83984C12.1686 4.51108 17.2902 3.90511 21.2947 6.36613C21.7358 6.63726 22.3132 6.4994 22.5843 6.05829C22.8554 5.61714 22.7176 5.03976 22.2765 4.76862C20.0172 3.38019 17.3135 2.77815 14.6638 3.07329C13.3394 3.22085 12.0597 3.58377 10.8603 4.15192C9.61927 4.73989 8.49339 5.53459 7.514 6.51398C6.53461 7.49337 5.73991 8.61925 5.15198 9.86031C4.58379 11.0596 4.22092 12.3393 4.07335 13.6637C3.77812 16.3136 4.38021 19.0172 5.76869 21.2764C5.94574 21.5645 6.2533 21.7232 6.56836 21.7232C6.73571 21.7232 6.90526 21.6784 7.05831 21.5843ZM16.4149 26.9928C19.462 26.8879 22.3281 25.6421 24.4852 23.4851C26.6422 21.328 27.888 18.462 27.9929 15.4149C28.0107 14.8973 27.6056 14.4634 27.0882 14.4456C26.5713 14.4281 26.1367 14.8328 26.1189 15.3503C26.0304 17.9212 24.9794 20.3393 23.1593 22.1592C21.3393 23.9793 18.9212 25.0304 16.3504 25.1189C15.8329 25.1367 15.4279 25.5707 15.4457 26.0881C15.4631 26.5946 15.8792 26.9934 16.3821 26.9934C16.3929 26.9934 16.4039 26.9932 16.4149 26.9928ZM11.5928 26.9999C11.5927 26.9999 11.5928 26.9999 11.5928 26.9999C10.8404 26.9999 10.1333 26.7055 9.60183 26.171C8.76804 25.3325 8.56661 24.0169 9.00317 22.2608C9.28982 21.1077 9.76089 20.1536 9.78081 20.1135C9.91534 19.843 10.1721 19.6538 10.4704 19.6055C10.7687 19.5572 11.072 19.6556 11.2851 19.8699L13.5838 22.1815C14.6775 23.2815 14.6775 25.0711 13.5838 26.171C13.0522 26.7055 12.3451 26.9999 11.5928 26.9999ZM10.9659 22.2082C10.9124 22.3776 10.861 22.5568 10.816 22.7407C10.5675 23.7569 10.6096 24.5252 10.9314 24.8489C11.1084 25.0269 11.3432 25.1249 11.5927 25.1249C11.8423 25.1249 12.0771 25.0269 12.2541 24.8489C12.6229 24.4781 12.6229 23.8746 12.2541 23.5038L10.9659 22.2082ZM17.0333 12.6634L19.4746 10.2252C19.841 9.85937 19.8414 9.26573 19.4755 8.89939C19.1097 8.533 18.5161 8.53258 18.1497 8.8985L16.8305 10.2159L16.5252 9.16063C16.3812 8.66327 15.8615 8.37667 15.364 8.52062C14.8666 8.66453 14.5801 9.18444 14.724 9.6818L15.4703 12.2606C15.5624 12.579 15.8159 12.8251 16.1369 12.9078C16.2143 12.9278 16.2929 12.9375 16.3708 12.9375C16.6161 12.9376 16.8553 12.8411 17.0333 12.6634ZM11.0835 18.5696L13.4742 16.1838C13.7101 15.9484 13.8033 15.6054 13.719 15.2829C13.6347 14.9605 13.3855 14.7071 13.0646 14.6173L10.5332 13.9092C10.0347 13.7698 9.51727 14.0608 9.37776 14.5595C9.23826 15.0581 9.52941 15.5755 10.0281 15.715L11.0134 15.9906L9.75906 17.2423C9.39258 17.6081 9.39192 18.2017 9.7577 18.5681C9.94085 18.7517 10.181 18.8435 10.4213 18.8435C10.6609 18.8434 10.9005 18.7521 11.0835 18.5696Z" fill="white"/>
</g>
<defs>
<filter id="filter0_d_347_777" x="0" y="-3.05176e-05" width="32" height="32" filterUnits="userSpaceOnUse" color-interpolation-filters="sRGB">
<feFlood flood-opacity="0" result="BackgroundImageFix"/>
<feColorMatrix in="SourceAlpha" type="matrix" values="0 0 0 0 0 0 0 0 0 0 0 0 0 0 0 0 0 0 127 0" result="hardAlpha"/>
<feOffset dy="1"/>
<feGaussianBlur stdDeviation="2"/>
<feComposite in2="hardAlpha" operator="out"/>
<feColorMatrix type="matrix" values="0 0 0 0 0.484505 0 0 0 0 0.470208 0 0 0 0 0.508333 0 0 0 0.75 0"/>
<feBlend mode="normal" in2="BackgroundImageFix" result="effect1_dropShadow_347_777"/>
<feBlend mode="normal" in="SourceGraphic" in2="effect1_dropShadow_347_777" result="shape"/>
</filter>
</defs>
</svg>
