<svg width="21" height="20" viewBox="0 0 21 20" fill="none" xmlns="http://www.w3.org/2000/svg">
<path d="M15.3799 6.42706C13.6066 6.42706 11.9137 5.39285 10.2764 4.39271C8.76999 3.47245 7.21223 2.52086 5.76877 2.52086C2.99459 2.52086 1.95694 4.08552 1.94726 4.10131C1.7216 4.46907 1.24059 4.58423 0.872778 4.35861C0.505009 4.13295 0.389815 3.6519 0.615476 3.28413C0.673757 3.18917 2.08491 0.958374 5.76877 0.958374C7.65172 0.958374 9.4001 2.02645 11.0909 3.05933C12.6107 3.98771 14.0461 4.86458 15.3799 4.86458C16.5188 4.86458 17.4937 4.58411 18.2774 4.03099C18.8135 3.6526 19.0503 3.28827 19.0524 3.28475C19.2778 2.91675 19.7586 2.80105 20.1266 3.02644C20.4946 3.25178 20.6102 3.73268 20.3849 4.10064C20.3267 4.19568 18.9198 6.42706 15.3799 6.42706ZM20.3849 8.43653C20.6102 8.06856 20.4946 7.58767 20.1266 7.36232C19.7586 7.13697 19.2777 7.25264 19.0524 7.62064C19.0503 7.62415 18.8135 7.98849 18.2774 8.36688C17.4937 8.92 16.5188 9.20046 15.3799 9.20046C14.0461 9.20046 12.6107 8.3236 11.0909 7.39521C9.4001 6.36233 7.65172 5.29426 5.76877 5.29426C2.08491 5.29426 0.673757 7.52505 0.615476 7.62001C0.389815 7.98778 0.505009 8.46879 0.872778 8.69449C1.24059 8.92008 1.7216 8.805 1.94726 8.43719C1.95694 8.42141 2.99459 6.85674 5.76877 6.85674C7.21223 6.85674 8.76999 7.80833 10.2764 8.72859C11.9137 9.72874 13.6066 10.7992 15.3799 10.7992C18.9198 10.7992 20.3267 8.53157 20.3849 8.43653ZM20.3849 12.7334C20.6102 12.3654 20.4946 11.8845 20.1266 11.6591C19.7586 11.4338 19.2777 11.5495 19.0524 11.9175C19.0503 11.921 18.8135 12.2853 18.2774 12.6637C17.4937 13.2168 16.5188 13.4973 15.3799 13.4973C14.0461 13.4973 12.6107 12.6204 11.0909 11.692C9.4001 10.6592 7.65172 9.59108 5.76877 9.59108C2.08491 9.59108 0.673757 11.8219 0.615476 11.9168C0.389815 12.2846 0.505009 12.7656 0.872778 12.9913C1.24059 13.2169 1.7216 13.1018 1.94726 12.734C1.95694 12.7182 2.99459 11.1536 5.76877 11.1536C7.21223 11.1536 8.76999 12.1052 10.2764 13.0254C11.9137 14.0256 13.6066 15.0961 15.3799 15.0961C18.9198 15.096 20.3267 12.8284 20.3849 12.7334ZM14.1944 18.4502C14.3542 18.0494 14.1588 17.595 13.7581 17.4352C12.8961 17.0916 12.0193 16.5559 11.0909 15.9888C9.4001 14.956 7.65172 13.8879 5.76877 13.8879C2.08491 13.8879 0.673757 16.1187 0.615476 16.2137C0.389815 16.5814 0.505009 17.0624 0.872778 17.2881C1.24059 17.5137 1.7216 17.3986 1.94726 17.0308C1.95694 17.0151 2.99459 15.4504 5.76877 15.4504C7.21223 15.4504 8.76995 16.4019 10.2764 17.3222C11.2194 17.8983 12.1945 18.494 13.1794 18.8866C13.2743 18.9245 13.3722 18.9424 13.4685 18.9424C13.7788 18.9423 14.0725 18.7561 14.1944 18.4502ZM20.4999 16.6194C20.4999 16.188 20.1501 15.8382 19.7186 15.8382C19.4324 15.8382 19.1829 15.9926 19.0468 16.2222C18.9659 16.3408 18.4094 17.1003 17.1646 17.5197C16.7557 17.6574 16.5359 18.1006 16.6736 18.5095C16.7835 18.8357 17.0877 19.0415 17.4139 19.0415C17.4966 19.0415 17.5807 19.0283 17.6634 19.0004C19.5506 18.3646 20.3518 17.0844 20.3849 17.0302L20.383 17.029C20.4566 16.9098 20.4999 16.7699 20.4999 16.6194Z" fill="#EA1C4F"/>
</svg>
