<svg width="20" height="20" viewBox="0 0 20 20" fill="none" xmlns="http://www.w3.org/2000/svg">
<path d="M19.2187 15.7814H17.5781L17.5781 5.54706C17.5781 4.97944 17.4278 4.43495 17.146 3.95898L19.7712 1.33383C20.0763 1.02871 20.0763 0.534022 19.7712 0.228945C19.4661 -0.0761327 18.9714 -0.0761717 18.6663 0.228945L16.0412 2.8541C15.5652 2.5723 15.0207 2.42203 14.4531 2.42203L4.21874 2.42214V0.781405C4.21874 0.349921 3.86898 0.000156255 3.43749 0.000156255C3.00601 0.000156255 2.65624 0.34996 2.65624 0.781405V2.42214H0.781249C0.349765 2.42214 0 2.77191 0 3.20339C0 3.63488 0.349804 3.98464 0.781249 3.98464H2.65624V14.2189C2.65624 15.942 4.05812 17.3439 5.78124 17.3439H16.0156V19.2189C16.0156 19.6504 16.3653 20.0001 16.7968 20.0001C17.2283 20.0001 17.5781 19.6504 17.5781 19.2189V17.3439H19.2187C19.6502 17.3439 20 16.9941 20 16.5626C20 16.1311 19.6502 15.7814 19.2187 15.7814ZM16.0156 15.7814H5.78124C4.91968 15.7814 4.21874 15.0804 4.21874 14.2189V3.98464L14.4531 3.9846C14.5917 3.9846 14.7275 4.00253 14.858 4.0373L6.79132 12.104C6.4862 12.4091 6.4862 12.9038 6.79132 13.2088C6.94385 13.3614 7.14381 13.4376 7.34374 13.4376C7.54366 13.4376 7.74362 13.3614 7.89616 13.2088L15.9629 5.14214C15.9976 5.27257 16.0156 5.40843 16.0156 5.54706V15.7814Z" fill="#EA1C4F"/>
</svg>
