<svg width="24" height="24" viewBox="0 0 24 24" fill="none" xmlns="http://www.w3.org/2000/svg">
<g filter="url(#filter0_d_347_813)">
<path d="M23.7288 13.3092C23.3645 12.9412 22.7709 12.9383 22.403 13.3026L20.25 15.4341V12C20.25 9.29552 19.1968 6.75292 17.2845 4.84056C15.3721 2.9282 12.8295 1.87502 10.125 1.87502C8.46435 1.87502 6.82588 2.28381 5.36919 3.0595C5.36722 3.06053 5.36526 3.06156 5.36329 3.06259C5.35916 3.0648 5.35504 3.067 5.35091 3.06925C5.35058 3.06939 5.3503 3.06958 5.34997 3.06972C5.34079 3.07464 5.3316 3.07956 5.32246 3.08453C5.31801 3.08692 5.31355 3.08936 5.3091 3.09175C5.30586 3.09348 5.30263 3.09527 5.2994 3.097C5.24479 3.12662 5.19041 3.15677 5.13632 3.18747C5.13271 3.18948 5.12915 3.19155 5.12558 3.19366C4.90508 3.31914 4.68833 3.45339 4.47861 3.59453C4.04905 3.88361 3.93515 4.46622 4.22422 4.89573C4.40525 5.16475 4.70132 5.30992 5.00286 5.30992C5.18286 5.30992 5.36488 5.25817 5.52538 5.15012C5.7568 4.99441 5.99868 4.84895 6.2443 4.71775C7.43188 4.08405 8.76899 3.75002 10.125 3.75002C14.6741 3.75002 18.375 7.45094 18.375 12V15.4563L16.2174 13.35C15.8469 12.9882 15.2533 12.9955 14.8917 13.366C14.53 13.7364 14.5372 14.33 14.9077 14.6917L17.3319 17.0582C17.8768 17.5901 18.5899 17.8556 19.3031 17.8556C20.0228 17.8556 20.7426 17.585 21.2886 17.0443L23.7222 14.635C24.0901 14.2706 24.093 13.6771 23.7288 13.3092Z" fill="white"/>
<path d="M1.01086 10.5024C0.492891 10.4707 0.0497344 10.8649 0.0185625 11.3818C0.00628125 11.5862 0 11.7942 0 12.0004C4.6875e-05 12.1378 0.00285938 12.2766 0.00829688 12.4127C0.0285938 12.9173 0.443953 13.3126 0.944438 13.3126C0.957094 13.3126 0.969797 13.3124 0.982641 13.3119C1.49995 13.2911 1.90256 12.8549 1.88184 12.3375C1.87734 12.2261 1.87505 12.1124 1.875 12C1.875 11.8317 1.88011 11.6617 1.89019 11.4947C1.92136 10.9779 1.5277 10.5337 1.01086 10.5024Z" fill="white"/>
<path d="M3.09345 16.3176C2.94674 16.0793 2.81099 15.8312 2.68981 15.58C2.46491 15.1137 1.90457 14.9178 1.43816 15.1429C0.971801 15.3678 0.776099 15.9282 1.00105 16.3945C1.14988 16.7031 1.31661 17.0079 1.49666 17.3004C1.67375 17.5882 1.98116 17.7467 2.29592 17.7467C2.46355 17.7467 2.63324 17.7017 2.78647 17.6074C3.22742 17.336 3.36486 16.7585 3.09345 16.3176Z" fill="white"/>
<path d="M10.125 20.25C9.84443 20.25 9.56145 20.2358 9.284 20.2078C8.7695 20.1554 8.30904 20.531 8.25701 21.0462C8.20494 21.5614 8.58031 22.0212 9.09551 22.0733C9.43536 22.1076 9.78176 22.125 10.1251 22.125C10.6429 22.125 11.0627 21.7053 11.0627 21.1875C11.0627 20.6697 10.6428 20.25 10.125 20.25Z" fill="white"/>
<path d="M6.09784 19.2022C5.85414 19.0656 5.61452 18.9147 5.38577 18.7539C4.96216 18.456 4.37744 18.5579 4.07965 18.9815C3.7818 19.405 3.88376 19.9898 4.30727 20.2876C4.58796 20.485 4.88196 20.6701 5.18107 20.8377C5.3261 20.919 5.48336 20.9576 5.63861 20.9576C5.96678 20.9576 6.28539 20.785 6.45728 20.4783C6.71036 20.0267 6.54953 19.4554 6.09784 19.2022Z" fill="white"/>
<path d="M2.90296 6.2435C2.46773 5.96323 1.88751 6.08872 1.60715 6.52405C1.42106 6.81294 1.24804 7.11435 1.09288 7.41983C0.858369 7.8815 1.04254 8.44579 1.50412 8.68026C1.64015 8.7494 1.78513 8.78212 1.92796 8.78212C2.26968 8.78212 2.59916 8.59457 2.76454 8.26902C2.89091 8.02021 3.03187 7.77472 3.18351 7.53932C3.46382 7.10399 3.33824 6.52386 2.90296 6.2435Z" fill="white"/>
</g>
<defs>
<filter id="filter0_d_347_813" x="-4" y="-1.12498" width="32" height="28.25" filterUnits="userSpaceOnUse" color-interpolation-filters="sRGB">
<feFlood flood-opacity="0" result="BackgroundImageFix"/>
<feColorMatrix in="SourceAlpha" type="matrix" values="0 0 0 0 0 0 0 0 0 0 0 0 0 0 0 0 0 0 127 0" result="hardAlpha"/>
<feOffset dy="1"/>
<feGaussianBlur stdDeviation="2"/>
<feComposite in2="hardAlpha" operator="out"/>
<feColorMatrix type="matrix" values="0 0 0 0 0.484505 0 0 0 0 0.470208 0 0 0 0 0.508333 0 0 0 0.75 0"/>
<feBlend mode="normal" in2="BackgroundImageFix" result="effect1_dropShadow_347_813"/>
<feBlend mode="normal" in="SourceGraphic" in2="effect1_dropShadow_347_813" result="shape"/>
</filter>
</defs>
</svg>
