<svg width="18" height="20" viewBox="0 0 18 20" fill="none" xmlns="http://www.w3.org/2000/svg">
<path d="M10.5364 7.41617L10.0956 15.74C10.0728 16.1708 10.4036 16.5386 10.8345 16.5614C10.8485 16.5622 10.8625 16.5625 10.8764 16.5625C11.289 16.5625 11.6339 16.2394 11.6559 15.8226L12.0968 7.49879C12.1196 7.06793 11.7888 6.70016 11.3579 6.6773C10.9273 6.65434 10.5593 6.98531 10.5364 7.41617Z" fill="white"/>
<path d="M6.64232 6.67733C6.21146 6.70014 5.88064 7.06795 5.90346 7.49881L6.34427 15.8226C6.36634 16.2394 6.71123 16.5626 7.12376 16.5626C7.13767 16.5626 7.15169 16.5622 7.16576 16.5615C7.59662 16.5387 7.92743 16.1709 7.90462 15.74L7.4638 7.4162C7.44095 6.9853 7.07322 6.65479 6.64232 6.67733Z" fill="white"/>
<path d="M16.3257 3.23871H12.1901V3.1866C12.1901 1.42949 10.7606 0 9.00355 0H8.99667C7.2396 0 5.81007 1.42949 5.81007 3.1866V3.23871H1.67456C1.24308 3.23871 0.893311 3.58848 0.893311 4.01996C0.893311 4.45145 1.24308 4.80121 1.67456 4.80121H1.92772L2.57593 17.0403C2.66382 18.6999 4.03452 20 5.69655 20H12.3037C13.9657 20 15.3364 18.6999 15.4243 17.0407L15.4246 17.0339C15.4477 16.6031 15.1171 16.2351 14.6863 16.2121C14.2554 16.1893 13.8875 16.5196 13.8644 16.9504L13.864 16.9577C13.8201 17.7875 13.1347 18.4375 12.3037 18.4375H5.69655C4.86558 18.4375 4.18019 17.7875 4.13624 16.9577L3.49245 4.80121H14.5078L14.0692 13.0837C14.0464 13.5145 14.3771 13.8823 14.808 13.9052C15.2383 13.9279 15.6067 13.5972 15.6295 13.1663L16.0725 4.80121H16.3257C16.7572 4.80121 17.1069 4.45145 17.1069 4.01996C17.1069 3.58848 16.7571 3.23871 16.3257 3.23871V3.23871ZM7.37257 3.23871V3.1866C7.37257 2.29109 8.10112 1.5625 8.99667 1.5625H9.00355C9.89905 1.5625 10.6276 2.29105 10.6276 3.1866V3.23871H7.37257Z" fill="white"/>
</svg>
