<svg width="19" height="20" viewBox="0 0 19 20" fill="none" xmlns="http://www.w3.org/2000/svg">
<path d="M5.71094 13.6719V17.3828C5.71094 18.826 4.53693 20 3.09375 20C1.65057 20 0.476562 18.826 0.476562 17.3828C0.476562 16.9513 0.826294 16.6016 1.25781 16.6016C1.68933 16.6016 2.03906 16.9513 2.03906 17.3828C2.03906 17.9643 2.51224 18.4375 3.09375 18.4375C3.67526 18.4375 4.14844 17.9643 4.14844 17.3828V13.6719C4.14844 13.2404 4.49817 12.8906 4.92969 12.8906C5.36121 12.8906 5.71094 13.2404 5.71094 13.6719ZM17.7031 16.0938H16.3359C15.9044 16.0938 15.5547 16.4435 15.5547 16.875C15.5547 17.3065 15.9044 17.6562 16.3359 17.6562H16.8822C16.7049 18.1247 16.2485 18.4375 15.7109 18.4375C15.0217 18.4375 14.4609 17.8767 14.4609 17.1875V15.7031C14.4609 15.0139 15.0217 14.4531 15.7109 14.4531C16.151 14.4531 16.5506 14.678 16.78 15.0546C17.0043 15.4233 17.4849 15.5402 17.8534 15.3159C18.2221 15.0914 18.339 14.6107 18.1147 14.2422C17.5995 13.3958 16.7009 12.8906 15.7109 12.8906C14.1602 12.8906 12.8984 14.1524 12.8984 15.7031V17.1875C12.8984 18.7383 14.1602 20 15.7109 20C16.3642 20 16.9988 19.778 17.4979 19.3748C17.999 18.9703 18.344 18.4003 18.4694 17.7696C18.4793 17.7194 18.4844 17.6683 18.4844 17.6172V16.875C18.4844 16.4435 18.1346 16.0938 17.7031 16.0938ZM11.7656 15.2344V15.7031C11.7656 16.9955 10.7143 18.0469 9.42188 18.0469H8.52344V19.2188C8.52344 19.6503 8.17371 20 7.74219 20C7.31067 20 6.96094 19.6503 6.96094 19.2188V13.6719C6.96094 13.2404 7.31067 12.8906 7.74219 12.8906H9.42188C10.7143 12.8906 11.7656 13.942 11.7656 15.2344ZM10.2031 15.2344C10.2031 14.8036 9.85263 14.4531 9.42188 14.4531H8.52344V16.4844H9.42188C9.85263 16.4844 10.2031 16.1339 10.2031 15.7031V15.2344ZM15.9453 5.37369V10.5469C15.9453 10.9784 16.295 11.3281 16.7266 11.3281C17.1581 11.3281 17.5078 10.9784 17.5078 10.5469V5.37369C17.5078 4.74777 17.264 4.15924 16.8213 3.71643L13.7914 0.686493C13.3487 0.243835 12.7602 0 12.1341 0H4.77786C3.05469 0 1.65286 1.40182 1.65286 3.125V10.5469C1.65286 10.9784 2.00259 11.3281 2.43411 11.3281C2.86548 11.3281 3.21536 10.9784 3.21536 10.5469V3.125C3.21536 2.26349 3.9162 1.5625 4.77786 1.5625H12.1341C12.3427 1.5625 12.5389 1.64368 12.6865 1.79138L15.7164 4.82132C15.864 4.96887 15.9453 5.1651 15.9453 5.37369Z" fill="white"/>
<path d="M11.9094 5.78799C11.5544 5.43298 10.9789 5.43298 10.6238 5.78799L8.96156 7.45027V5.78799C8.95282 5.286 8.53885 4.88613 8.03686 4.89486C7.54716 4.90336 7.15223 5.29829 7.14374 5.78799V9.6448C7.1431 10.1469 7.54957 10.5544 8.05165 10.555C8.05244 10.555 8.05316 10.555 8.05394 10.555L11.9108 10.555C12.4131 10.5546 12.82 10.1471 12.8197 9.6448C12.8194 9.14248 12.4118 8.73552 11.9095 8.73585L10.2472 8.73585L11.9095 7.07357C12.2644 6.71856 12.2644 6.14299 11.9094 5.78799Z" fill="white"/>
</svg>
