<svg width="28" height="32" viewBox="0 0 28 32" fill="none" xmlns="http://www.w3.org/2000/svg">
<g filter="url(#filter0_d_347_746)">
<path d="M12.8867 21.6202C12.7686 21.7377 12.751 21.8741 12.751 21.9452C12.751 22.0161 12.7686 22.1527 12.8867 22.2702L16.0323 25.4004C16.3989 25.765 16.4002 26.3577 16.0356 26.7242C15.8527 26.9079 15.6124 27 15.372 27C15.1332 27 14.8943 26.9092 14.7117 26.7275L11.5662 23.5972C11.1229 23.1563 10.8788 22.5696 10.8788 21.9452C10.8788 21.3208 11.1229 20.7341 11.5662 20.2932L14.7117 17.1628C15.0781 16.7983 15.6708 16.7997 16.0356 17.1661C16.4002 17.5327 16.3989 18.1252 16.0323 18.49L12.8867 21.6202ZM22.9224 20.2568L19.7766 17.1266C19.4102 16.7618 18.8175 16.7633 18.4528 17.1297C18.0882 17.4963 18.0897 18.089 18.4561 18.4536L21.6016 21.5837C21.7197 21.7013 21.7373 21.8379 21.7373 21.9088C21.7373 21.9796 21.7197 22.1162 21.6016 22.2338L18.4561 25.364C18.0897 25.7287 18.0882 26.3214 18.4528 26.6878C18.6357 26.8716 18.8761 26.9636 19.1163 26.9636C19.3551 26.9636 19.5941 26.8727 19.7766 26.6911L22.9224 23.5607C23.3655 23.1198 23.6096 22.5331 23.6096 21.9088C23.6096 21.2844 23.3655 20.6979 22.9224 20.2568Z" fill="white"/>
<path d="M21.7345 9.44843V15.6563C21.7345 16.1741 22.1542 16.5938 22.672 16.5938C23.1898 16.5938 23.6095 16.1741 23.6095 15.6563V9.44843C23.6095 8.69733 23.3169 7.99109 22.7857 7.45972L19.1498 3.82379C18.6186 3.2926 17.9124 3 17.1611 3H8.33355C6.26574 3 4.58356 4.68219 4.58356 6.75L4.5835 26.0625C4.5835 26.5803 5.00317 27 5.521 27C6.03864 27 6.4585 26.5803 6.4585 26.0625L6.45855 6.75C6.45855 5.71619 7.29956 4.875 8.33355 4.875H17.1611C17.4114 4.875 17.6469 4.97241 17.8239 5.14966L21.4598 8.78558C21.6369 8.96265 21.7345 9.19812 21.7345 9.44843Z" fill="white"/>
<path d="M12.265 14.5941C12.691 15.0201 13.3817 15.0201 13.8077 14.5941L15.8024 12.5993V14.5941C15.8129 15.1965 16.3097 15.6763 16.9121 15.6658C17.4997 15.6556 17.9736 15.1817 17.9838 14.5941V9.96591C17.9846 9.36341 17.4968 8.87442 16.8943 8.87366L12.2634 8.87366C11.6606 8.87409 11.1723 9.36312 11.1727 9.96591C11.1731 10.5687 11.6621 11.057 12.2649 11.0566H14.2597L12.2649 13.0514C11.839 13.4774 11.839 14.1681 12.265 14.5941Z" fill="white"/>
</g>
<defs>
<filter id="filter0_d_347_746" x="0.583496" y="0" width="27.0259" height="32" filterUnits="userSpaceOnUse" color-interpolation-filters="sRGB">
<feFlood flood-opacity="0" result="BackgroundImageFix"/>
<feColorMatrix in="SourceAlpha" type="matrix" values="0 0 0 0 0 0 0 0 0 0 0 0 0 0 0 0 0 0 127 0" result="hardAlpha"/>
<feOffset dy="1"/>
<feGaussianBlur stdDeviation="2"/>
<feComposite in2="hardAlpha" operator="out"/>
<feColorMatrix type="matrix" values="0 0 0 0 0.484505 0 0 0 0 0.470208 0 0 0 0 0.508333 0 0 0 0.75 0"/>
<feBlend mode="normal" in2="BackgroundImageFix" result="effect1_dropShadow_347_746"/>
<feBlend mode="normal" in="SourceGraphic" in2="effect1_dropShadow_347_746" result="shape"/>
</filter>
</defs>
</svg>
