<svg width="19" height="18" viewBox="0 0 19 18" fill="none" xmlns="http://www.w3.org/2000/svg">
<path d="M12.7344 3.86719C13.3168 3.86719 13.7891 4.33937 13.7891 4.92188C13.7335 6.32088 11.735 6.3205 11.6797 4.92188C11.6797 4.33937 12.1519 3.86719 12.7344 3.86719ZM17.0938 8.85938V2.8125C17.0938 2.03709 16.4629 1.40625 15.6875 1.40625H3.3125C2.53709 1.40625 1.90625 2.03709 1.90625 2.8125V9.04982L4.50233 6.45374C5.32474 5.63129 6.66296 5.63129 7.48544 6.45374L11.2274 10.1957L12.0162 9.40686C12.8387 8.58442 14.1769 8.58442 14.9994 9.40686L18.2941 12.7016C18.4259 12.8334 18.5 13.0123 18.5 13.1987V15.1875C18.5 16.7383 17.2383 18 15.6875 18H3.3125C1.76169 18 0.5 16.7383 0.5 15.1875V2.8125C0.5 1.26169 1.76169 0 3.3125 0H15.6875C17.2383 0 18.5 1.26169 18.5 2.8125V8.85938C18.4629 9.79228 17.1306 9.79158 17.0938 8.85938ZM1.90625 11.0385V15.1875C1.90625 15.9629 2.53709 16.5938 3.3125 16.5938H15.6875C16.4629 16.5938 17.0938 15.9629 17.0938 15.1875V13.49L14.005 10.4013C13.7309 10.1271 13.2848 10.1271 13.0107 10.4013L9.53069 13.8812C9.25616 14.1558 8.81097 14.1558 8.53633 13.8812C8.26173 13.6066 8.26176 13.1614 8.53633 12.8868L10.233 11.1901L6.49101 7.44813C6.22931 7.17536 5.75839 7.17536 5.49669 7.44813L1.90625 11.0385Z" fill="#EA1C4F"/>
</svg>
