<svg width="20" height="20" viewBox="0 0 20 20" fill="none" xmlns="http://www.w3.org/2000/svg">
<path d="M9.99992 0.833298C8.18693 0.833298 6.41465 1.37091 4.9072 2.37816C3.39974 3.38541 2.22483 4.81704 1.53103 6.49203C0.837224 8.16702 0.655693 10.0101 1.00939 11.7883C1.36309 13.5665 2.23613 15.1998 3.51811 16.4818C4.80009 17.7638 6.43344 18.6368 8.21159 18.9905C9.98975 19.3442 11.8329 19.1627 13.5079 18.4689C15.1828 17.7751 16.6145 16.6001 17.6217 15.0927C18.629 13.5852 19.1666 11.813 19.1666 9.99996C19.1637 7.56969 18.197 5.23978 16.4786 3.52132C14.7601 1.80286 12.4302 0.836165 9.99992 0.833298ZM6.79076 3.23163C6.75849 3.89026 6.53461 4.52513 6.14659 5.0583C5.81826 4.89163 5.42992 4.67746 4.99826 4.42746C5.53526 3.94488 6.13895 3.54214 6.79076 3.23163ZM5.15242 15.7125C3.88038 14.6359 3.0031 13.1664 2.65909 11.5358C5.66659 10.515 6.94992 10.3608 7.44992 10.3608C7.35981 10.5991 7.20969 10.8101 7.01409 10.9733C6.76465 11.1855 6.57792 11.4619 6.47409 11.7725C6.41485 12.0017 6.42261 12.2431 6.49647 12.4681C6.57032 12.6931 6.70716 12.8921 6.89076 13.0416C6.92909 13.3975 6.07159 14.51 5.50409 15.2466C5.38742 15.3966 5.26992 15.5583 5.15242 15.7125ZM9.99992 17.5C8.79333 17.5 7.6048 17.2069 6.53659 16.6458C6.63242 16.5191 6.72909 16.3866 6.82326 16.2641C7.95076 14.8016 9.11326 13.2925 8.24742 12.0975C8.53889 11.8316 8.77132 11.5076 8.92965 11.1463C9.08799 10.785 9.1687 10.3944 9.16659 9.99996C9.16803 9.80397 9.12184 9.61055 9.03198 9.43636C8.94213 9.26216 8.8113 9.11241 8.65076 8.99996C8.26492 8.72747 7.48826 8.1758 2.50826 9.82663C2.54055 8.34583 3.01346 6.90825 3.86659 5.69746C4.48159 6.0608 5.01576 6.35663 5.46076 6.57913C5.71307 6.70808 5.9962 6.76451 6.27868 6.74215C6.56115 6.71979 6.83188 6.61951 7.06076 6.45246C7.99409 5.79913 8.47742 4.11913 8.48826 2.6533C9.81819 2.37876 11.1979 2.47416 12.4774 2.92913C9.79825 4.0733 9.16659 5.54413 9.16659 6.66663C9.16659 9.19496 10.8474 9.38997 11.7499 9.49496C12.4999 9.58247 12.4999 9.58247 12.4999 9.99996C12.4866 10.7037 12.3378 11.3983 12.0616 12.0458C11.7591 12.8566 11.3024 14.0833 12.9608 14.9125C13.2355 15.0486 13.5384 15.1179 13.8449 15.115C14.6212 15.0462 15.373 14.8081 16.0474 14.4175C15.3534 15.3712 14.4439 16.1475 13.3929 16.6832C12.342 17.2188 11.1795 17.4987 9.99992 17.5ZM17.1958 12.0958C16.632 12.2912 16.0835 12.5282 15.5549 12.805C14.8999 13.1275 14.0033 13.5691 13.7058 13.4208C13.6089 13.3736 13.5153 13.3199 13.4258 13.26C13.4709 13.0429 13.537 12.8308 13.6233 12.6266C13.9705 11.7938 14.1549 10.9022 14.1666 9.99996C14.1666 8.09746 12.6666 7.9233 11.9416 7.83913C11.0683 7.7383 10.8333 7.7108 10.8333 6.66663C10.8333 5.30996 12.9541 4.4358 14.4616 3.9858C15.6957 4.8926 16.6204 6.15774 17.1096 7.60895C17.5989 9.06015 17.6289 10.6269 17.1958 12.0958Z" fill="white"/>
</svg>
