<svg width="144" height="85" viewBox="0 0 144 85" fill="none" xmlns="http://www.w3.org/2000/svg">
<path fill-rule="evenodd" clip-rule="evenodd" d="M44.8508 15.1707C44.8508 11.9337 47.475 9.30957 50.712 9.30957H90.934C91.337 9.30957 91.7235 9.46967 92.0085 9.75464L104.289 22.0355C104.883 22.6289 104.883 23.591 104.289 24.1845C103.696 24.7779 102.734 24.7779 102.14 24.1845L90.3046 12.3487H50.712C49.1534 12.3487 47.89 13.6122 47.89 15.1707V78.6389C47.89 80.1974 49.1534 81.4609 50.712 81.4609H104.206C105.768 81.4609 107.033 80.1926 107.028 78.631L106.894 30.1846H95.2756C92.0386 30.1846 89.4144 27.5604 89.4144 24.3234L89.4144 17.3005C89.4144 16.4612 90.0948 15.7809 90.934 15.7809C91.7732 15.7809 92.4535 16.4612 92.4535 17.3005L92.4536 24.3234C92.4536 25.882 93.717 27.1454 95.2756 27.1454H108.409C109.247 27.1454 109.926 27.8232 109.929 28.6608L110.067 78.6226C110.076 81.8659 107.45 84.5 104.206 84.5H50.712C47.475 84.5 44.8508 81.8759 44.8508 78.6389V15.1707Z" fill="#0A0720"/>
<path fill-rule="evenodd" clip-rule="evenodd" d="M87.4267 50.489C87.8297 50.489 88.2162 50.6491 88.5012 50.934L97.1364 59.5692C97.7298 60.1627 97.7298 61.1248 97.1364 61.7182C96.543 62.3116 95.5809 62.3116 94.9874 61.7182L87.4267 54.1575L77.4166 64.1676C76.8232 64.761 75.8611 64.761 75.2676 64.1676L70.0055 58.9055L59.224 69.1883H96.0619C96.9012 69.1883 97.5815 69.8686 97.5815 70.7078C97.5815 71.5471 96.9012 72.2274 96.0619 72.2274H55.429C54.8079 72.2274 54.2493 71.8493 54.0184 71.2727C53.7875 70.696 53.9308 70.0369 54.3803 69.6082L68.9819 55.682C69.579 55.1124 70.5216 55.1236 71.1051 55.7071L76.3421 60.9441L86.3522 50.934C86.6372 50.6491 87.0237 50.489 87.4267 50.489Z" fill="#7465DE"/>
<path fill-rule="evenodd" clip-rule="evenodd" d="M66.0202 33.8501C66.8594 33.8501 67.5397 34.5304 67.5397 35.3697V38.4922C68.2308 38.7127 68.8565 39.0796 69.3803 39.5563L72.0857 37.9944C72.8125 37.5748 73.7418 37.8238 74.1614 38.5506C74.5811 39.2774 74.332 40.2068 73.6052 40.6264L70.9008 42.1878C70.975 42.5304 71.0142 42.8861 71.0142 43.2509C71.0142 43.6158 70.975 43.9716 70.9007 44.3142L73.6052 45.8757C74.332 46.2953 74.5811 47.2246 74.1614 47.9514C73.7418 48.6782 72.8125 48.9272 72.0857 48.5076L69.3803 46.9456C68.8564 47.4224 68.2307 47.7892 67.5397 48.0097V51.1321C67.5397 51.9714 66.8594 52.6517 66.0202 52.6517C65.1809 52.6517 64.5006 51.9714 64.5006 51.1321V48.0098C63.8095 47.7893 63.1837 47.4224 62.6598 46.9457L59.9546 48.5075C59.2278 48.9271 58.2984 48.6781 57.8788 47.9513C57.4592 47.2245 57.7082 46.2952 58.435 45.8755L61.1393 44.3142C61.065 43.9716 61.0259 43.6158 61.0259 43.2509C61.0259 42.886 61.065 42.5302 61.1393 42.1876L58.435 40.6263C57.7082 40.2066 57.4592 39.2773 57.8788 38.5505C58.2984 37.8237 59.2278 37.5747 59.9546 37.9943L62.6598 39.5562C63.1838 39.0794 63.8095 38.7126 64.5006 38.4921V35.3697C64.5006 34.5304 65.1809 33.8501 66.0202 33.8501ZM64.065 43.2509C64.065 42.1712 64.9403 41.2959 66.02 41.2959C67.0997 41.2959 67.975 42.1712 67.975 43.2509C67.975 44.3307 67.0997 45.206 66.02 45.206C64.9403 45.206 64.065 44.3307 64.065 43.2509Z" fill="#7465DE"/>
<path d="M40.8539 7.20837L35.337 4.02317C34.988 3.82166 34.5732 3.76705 34.1839 3.87136L4.65472 11.7837C1.52799 12.6215 -0.327554 15.8354 0.510251 18.9621L12.8928 65.1743C13.7306 68.301 16.9445 70.1566 20.0712 69.3187L40.8539 63.75V60.6037L19.2846 66.3832C17.7791 66.7866 16.2317 65.8932 15.8283 64.3877L3.44582 18.1755C3.04243 16.6701 3.93584 15.1226 5.4413 14.7193L34.3625 6.96984L40.8539 10.7176V7.20837Z" fill="#A39EA9"/>
<path d="M40.8539 16.3117C39.7739 16.1527 38.8384 15.3708 38.5378 14.2492L37.3572 9.84294C37.14 9.0323 36.3067 8.55124 35.4961 8.76845C34.6855 8.98565 34.2044 9.81889 34.4216 10.6295L35.6023 15.0358C36.267 17.5168 38.4278 19.1974 40.8539 19.3673V16.3117Z" fill="#A39EA9"/>
<path d="M40.8538 35.8079C40.5466 35.6808 40.2042 35.6573 39.8795 35.7443C39.4902 35.8486 39.1583 36.1033 38.9568 36.4523L33.5761 45.772L28.8361 43.0354C28.1215 42.6228 27.2081 42.856 26.7787 43.5607L18.5529 57.0599C18.2297 57.5903 18.2619 58.264 18.6342 58.7613C19.0064 59.2585 19.6439 59.4791 20.2439 59.3183L40.8538 53.7959V50.6496L23.1229 55.4006L28.6018 46.4094L33.3725 49.1637C33.7215 49.3652 34.1363 49.4198 34.5255 49.3155C34.9148 49.2112 35.2467 48.9565 35.4482 48.6075L40.829 39.2878L40.8538 39.3021V35.8079Z" fill="#EA1C4F"/>
<path fill-rule="evenodd" clip-rule="evenodd" d="M20.1023 27.469C20.7596 27.2824 21.4438 27.6639 21.6304 28.3213L22.3249 30.7671C22.9152 30.7861 23.4869 30.9343 24.0032 31.1912L25.7749 29.3662C26.2508 28.8759 27.0342 28.8642 27.5245 29.3402C28.0148 29.8161 28.0264 30.5994 27.5504 31.0898L25.7794 32.9142C25.9137 33.1661 26.0235 33.436 26.1046 33.7218C26.1858 34.0076 26.2342 34.2949 26.2523 34.5798L28.7179 35.2014C29.3805 35.3684 29.7822 36.041 29.6152 36.7036C29.4481 37.3661 28.7756 37.7679 28.113 37.6008L25.6465 36.9791C25.3422 37.469 24.9337 37.8955 24.4415 38.2218L25.1359 40.6676C25.3226 41.3249 24.941 42.0091 24.2837 42.1957C23.6263 42.3824 22.9421 42.0008 22.7555 41.3435L22.0611 38.8978C21.4707 38.8788 20.899 38.7306 20.3826 38.4737L18.611 40.2987C18.1351 40.789 17.3518 40.8006 16.8614 40.3247C16.3711 39.8487 16.3595 39.0654 16.8355 38.5751L18.6064 36.7507C18.472 36.4989 18.3622 36.2289 18.2811 35.9431C18.1999 35.6573 18.1515 35.3699 18.1334 35.085L15.668 34.4635C15.0054 34.2964 14.6037 33.6239 14.7707 32.9613C14.9378 32.2987 15.6103 31.897 16.2729 32.064L18.7392 32.6857C19.0436 32.1958 19.4521 31.7693 19.9444 31.4429L19.25 28.9972C19.0633 28.3398 19.4449 27.6556 20.1023 27.469ZM20.6615 35.2672C20.4214 34.4215 20.9123 33.5412 21.7581 33.3011C22.6038 33.061 23.484 33.5519 23.7242 34.3976C23.9643 35.2434 23.4734 36.1236 22.6276 36.3638C21.7819 36.6039 20.9017 36.113 20.6615 35.2672Z" fill="#EA1C4F"/>
<path d="M97.5178 9.63555L98.5905 5.63222C98.9939 4.12676 100.541 3.23335 102.047 3.63674L131.431 11.5102L138.013 22.9103C138.432 23.6371 139.362 23.8861 140.088 23.4665C140.815 23.0469 141.064 22.1175 140.645 21.3907L133.748 9.4455C133.547 9.09648 133.215 8.8418 132.825 8.7375L102.833 0.701169C99.7066 -0.136637 96.4927 1.71891 95.6549 4.84564L95.0364 7.15411L97.5178 9.63555Z" fill="#A39EA9"/>
<path d="M113.691 66.0794V62.9331L127.311 66.5825C128.819 66.9866 130.369 66.0889 130.769 64.5794L140.314 28.5551L132.566 26.479C129.44 25.6412 127.584 22.4273 128.422 19.3006L129.634 14.7763C129.851 13.9656 130.685 13.4846 131.495 13.7018C132.306 13.919 132.787 14.7522 132.57 15.5629L131.357 20.0872C130.954 21.5926 131.847 23.1401 133.353 23.5435L142.565 26.0117C143.374 26.2285 143.855 27.0591 143.64 27.8687L133.707 65.3578C132.876 68.493 129.657 70.3575 126.524 69.518L113.691 66.0794Z" fill="#A39EA9"/>
<path d="M113.691 29.4903V27.1819C113.916 27.3745 114.088 27.6348 114.17 27.9427C114.327 28.5263 114.121 29.1216 113.691 29.4903Z" fill="#A102B7"/>
<path d="M113.691 55.989L123.665 58.6614C124.475 58.8786 125.309 58.3975 125.526 57.5869C125.743 56.7763 125.262 55.943 124.451 55.7258L113.691 52.8426V55.989Z" fill="#A102B7"/>
<path d="M113.691 47.2086V43.6993L120.518 39.7581C121.244 39.3384 122.174 39.5875 122.593 40.3142L127.443 48.7134C127.862 49.4402 127.613 50.3696 126.887 50.7892C126.16 51.2088 125.23 50.9598 124.811 50.233L120.721 43.1498L113.691 47.2086Z" fill="#A102B7"/>
</svg>
