<svg width="36" height="36" viewBox="0 0 36 36" fill="none" xmlns="http://www.w3.org/2000/svg">
<rect width="36" height="36" rx="12" fill="url(#paint0_linear_40_1902)"/>
<g filter="url(#filter0_d_40_1902)">
<path d="M14.9688 20.9375V23.9062C14.9688 25.0608 14.0295 26 12.875 26C11.7205 26 10.7812 25.0608 10.7812 23.9062C10.7812 23.561 11.061 23.2812 11.4062 23.2812C11.7515 23.2812 12.0312 23.561 12.0312 23.9062C12.0312 24.3715 12.4098 24.75 12.875 24.75C13.3402 24.75 13.7188 24.3715 13.7188 23.9062V20.9375C13.7188 20.5923 13.9985 20.3125 14.3438 20.3125C14.689 20.3125 14.9688 20.5923 14.9688 20.9375ZM24.5625 22.875H23.4688C23.1235 22.875 22.8438 23.1548 22.8438 23.5C22.8438 23.8452 23.1235 24.125 23.4688 24.125H23.9058C23.7639 24.4998 23.3988 24.75 22.9688 24.75C22.4174 24.75 21.9688 24.3014 21.9688 23.75V22.5625C21.9688 22.0111 22.4174 21.5625 22.9688 21.5625C23.3208 21.5625 23.6405 21.7424 23.824 22.0437C24.0034 22.3386 24.3879 22.4321 24.6827 22.2527C24.9777 22.0731 25.0712 21.6886 24.8917 21.3938C24.4796 20.7167 23.7607 20.3125 22.9688 20.3125C21.7281 20.3125 20.7188 21.3219 20.7188 22.5625V23.75C20.7188 24.9906 21.7281 26 22.9688 26C23.4913 26 23.999 25.8224 24.3983 25.4999C24.7992 25.1763 25.0752 24.7202 25.1755 24.2157C25.1835 24.1755 25.1875 24.1346 25.1875 24.0938V23.5C25.1875 23.1548 24.9077 22.875 24.5625 22.875ZM19.8125 22.1875V22.5625C19.8125 23.5964 18.9714 24.4375 17.9375 24.4375H17.2188V25.375C17.2188 25.7202 16.939 26 16.5938 26C16.2485 26 15.9688 25.7202 15.9688 25.375V20.9375C15.9688 20.5923 16.2485 20.3125 16.5938 20.3125H17.9375C18.9714 20.3125 19.8125 21.1536 19.8125 22.1875ZM18.5625 22.1875C18.5625 21.8429 18.2821 21.5625 17.9375 21.5625H17.2188V23.1875H17.9375C18.2821 23.1875 18.5625 22.9071 18.5625 22.5625V22.1875ZM23.1562 14.299V18.4375C23.1562 18.7827 23.436 19.0625 23.7812 19.0625C24.1265 19.0625 24.4062 18.7827 24.4062 18.4375V14.299C24.4062 13.7982 24.2112 13.3274 23.8571 12.9731L21.4331 10.5492C21.079 10.1951 20.6082 10 20.1073 10H14.2223C12.8438 10 11.7223 11.1215 11.7223 12.5V18.4375C11.7223 18.7827 12.0021 19.0625 12.3473 19.0625C12.6924 19.0625 12.9723 18.7827 12.9723 18.4375V12.5C12.9723 11.8108 13.533 11.25 14.2223 11.25H20.1073C20.2742 11.25 20.4312 11.3149 20.5492 11.4331L22.9731 13.8571C23.0912 13.9751 23.1562 14.1321 23.1562 14.299Z" fill="white"/>
<path d="M16.8432 17.7294C17.1273 18.0134 17.5877 18.0134 17.8717 17.7294L19.2015 16.3996V17.7294C19.2085 18.131 19.5397 18.4509 19.9413 18.4439C20.3331 18.4371 20.649 18.1211 20.6558 17.7294V14.6439C20.6563 14.2423 20.3311 13.9163 19.9295 13.9158C19.9288 13.9158 19.9283 13.9158 19.9276 13.9158L16.8422 13.9158C16.4403 13.9161 16.1148 14.2421 16.115 14.6439C16.1153 15.0458 16.4413 15.3714 16.8432 15.3711H18.173L16.8432 16.7009C16.5592 16.9849 16.5592 17.4454 16.8432 17.7294Z" fill="white"/>
</g>
<defs>
<filter id="filter0_d_40_1902" x="6.78125" y="7" width="22.4062" height="24" filterUnits="userSpaceOnUse" color-interpolation-filters="sRGB">
<feFlood flood-opacity="0" result="BackgroundImageFix"/>
<feColorMatrix in="SourceAlpha" type="matrix" values="0 0 0 0 0 0 0 0 0 0 0 0 0 0 0 0 0 0 127 0" result="hardAlpha"/>
<feOffset dy="1"/>
<feGaussianBlur stdDeviation="2"/>
<feComposite in2="hardAlpha" operator="out"/>
<feColorMatrix type="matrix" values="0 0 0 0 0.484505 0 0 0 0 0.470208 0 0 0 0 0.508333 0 0 0 0.75 0"/>
<feBlend mode="normal" in2="BackgroundImageFix" result="effect1_dropShadow_40_1902"/>
<feBlend mode="normal" in="SourceGraphic" in2="effect1_dropShadow_40_1902" result="shape"/>
</filter>
<linearGradient id="paint0_linear_40_1902" x1="26.9859" y1="-0.517968" x2="6.4633" y2="34.832" gradientUnits="userSpaceOnUse">
<stop stop-color="#BEBBC3"/>
<stop offset="1" stop-color="#A39EA9"/>
<stop offset="1" stop-color="#A39EA9"/>
</linearGradient>
</defs>
</svg>
