<svg width="16" height="16" viewBox="0 0 16 16" fill="none" xmlns="http://www.w3.org/2000/svg">
<path d="M4.37236 5.58154H0.744629V15.2555H4.37236V5.58154Z" fill="#2068BE"/>
<path d="M12.9021 5.69499C12.8687 5.68444 12.837 5.67301 12.8018 5.66333C12.7596 5.65366 12.7174 5.64574 12.6743 5.63871C12.5072 5.60529 12.3243 5.58154 12.1097 5.58154C10.2752 5.58154 9.11165 6.91567 8.72821 7.43103V5.58154H5.58154V15.2555H8.72821V9.97879C8.72821 9.97879 11.1062 6.66678 12.1097 9.09934C12.1097 11.2707 12.1097 15.2555 12.1097 15.2555H15.2555V8.72733C15.2555 7.26569 14.2538 6.04765 12.9021 5.69499Z" fill="#2068BE"/>
<path d="M2.55849 4.37236C3.56026 4.37236 4.37236 3.56026 4.37236 2.55849C4.37236 1.55672 3.56026 0.744629 2.55849 0.744629C1.55672 0.744629 0.744629 1.55672 0.744629 2.55849C0.744629 3.56026 1.55672 4.37236 2.55849 4.37236Z" fill="#2068BE"/>
</svg>
