<svg width="18" height="18" viewBox="0 0 18 18" fill="none" xmlns="http://www.w3.org/2000/svg">
<g clip-path="url(#clip0_19_529)">
<path d="M12.75 8.25C12.3352 8.25 12 7.914 12 7.5V4.5C12 2.8455 10.6545 1.5 9 1.5C7.3455 1.5 6 2.8455 6 4.5V7.5C6 7.914 5.66475 8.25 5.25 8.25C4.83525 8.25 4.5 7.914 4.5 7.5V4.5C4.5 2.01825 6.51825 0 9 0C11.4818 0 13.5 2.01825 13.5 4.5V7.5C13.5 7.914 13.1648 8.25 12.75 8.25Z" fill="#607D8B"/>
<path d="M14.0625 6.75H3.9375C3.0075 6.75 2.25 7.50675 2.25 8.4375V16.3125C2.25 17.2432 3.0075 18 3.9375 18H14.0625C14.9925 18 15.75 17.2432 15.75 16.3125V8.4375C15.75 7.50675 14.9925 6.75 14.0625 6.75Z" fill="#FFC107"/>
<path d="M9 0C6.51825 0 4.5 2.01825 4.5 4.5V6.75H6V4.5C6 2.8455 7.3455 1.5 9 1.5V0Z" fill="#546D79"/>
<path d="M9 6.75H6H4.5H3.9375C3.0075 6.75 2.25 7.50675 2.25 8.4375V16.3125C2.25 17.2432 3.0075 18 3.9375 18H9V6.75Z" fill="#DEA806"/>
</g>
<defs>
<clipPath id="clip0_19_529">
<rect width="18" height="18" fill="white"/>
</clipPath>
</defs>
</svg>
