<svg width="84" height="84" viewBox="0 0 84 84" fill="none" xmlns="http://www.w3.org/2000/svg">
<path d="M78.7501 31.5001H71.7501V24.5001C71.751 23.8104 71.6158 23.1273 71.3523 22.4899C71.0888 21.8525 70.7021 21.2734 70.2144 20.7857C69.7267 20.298 69.1476 19.9113 68.5102 19.6478C67.8729 19.3843 67.1898 19.2491 66.5001 19.2501H39.8126C39.0312 19.2502 38.2596 19.0759 37.5542 18.7399C36.8487 18.4038 36.2273 17.9145 35.7351 17.3076L32.3051 13.0901C31.6512 12.2811 30.8247 11.6286 29.886 11.1804C28.9473 10.7323 27.9202 10.4998 26.8801 10.5001H7.00006C6.31036 10.4991 5.62726 10.6343 4.98988 10.8978C4.35251 11.1613 3.77339 11.548 3.2857 12.0357C2.79801 12.5234 2.41133 13.1025 2.14782 13.7399C1.88431 14.3773 1.74914 15.0604 1.75006 15.7501V67.4976C1.74644 68.2858 1.90101 69.0668 2.20461 69.7942C2.50821 70.5216 2.95467 71.1808 3.51756 71.7326C4.06937 72.2955 4.7285 72.7419 5.45593 73.0455C6.18337 73.3491 6.96432 73.5037 7.75256 73.5001H66.6576C67.9578 73.4996 69.223 73.0783 70.2639 72.2992C71.3049 71.5201 72.0657 70.425 72.4326 69.1776L82.1101 35.9801C82.2611 35.4585 82.2888 34.909 82.1912 34.3748C82.0935 33.8407 81.8731 33.3365 81.5473 32.9022C81.2215 32.4678 80.7992 32.115 80.3138 31.8717C79.8284 31.6284 79.2931 31.5011 78.7501 31.5001Z" fill="#3D2BC9"/>
<path d="M78.7477 31.5H29.0018C27.7031 31.5002 26.4394 31.9216 25.4005 32.7009C24.3616 33.4803 23.6035 34.5756 23.24 35.8225L13.5099 69.1799C13.1465 70.4262 12.3885 71.521 11.35 72.3C10.3114 73.0789 9.04822 73.5 7.75 73.5H66.6616C67.9607 73.5001 69.2246 73.0789 70.2638 72.2995C71.303 71.5201 72.0614 70.4246 72.4249 69.1775L82.1078 35.98C82.26 35.4584 82.2886 34.9085 82.1914 34.3739C82.0942 33.8393 81.8738 33.3346 81.5478 32.8999C81.2218 32.4652 80.799 32.1124 80.313 31.8694C79.827 31.6265 79.291 31.5 78.7477 31.5Z" fill="#7465DE"/>
</svg>
