<svg width="36" height="36" viewBox="0 0 36 36" fill="none" xmlns="http://www.w3.org/2000/svg">
<rect width="36" height="36" rx="12" fill="url(#paint0_linear_40_1901)"/>
<g clip-path="url(#clip0_40_1901)">
<g filter="url(#filter0_d_40_1901)">
<path d="M25.8192 18.8728C25.5763 18.6274 25.1806 18.6255 24.9353 18.8684L23.5 20.2894V18C23.5 16.197 22.7979 14.5019 21.523 13.227C20.2481 11.9521 18.553 11.25 16.75 11.25C15.6429 11.25 14.5506 11.5225 13.5795 12.0397C13.5781 12.0403 13.5768 12.041 13.5755 12.0417C13.5728 12.0432 13.57 12.0447 13.5673 12.0462C13.5671 12.0462 13.5669 12.0464 13.5666 12.0465C13.5605 12.0497 13.5544 12.053 13.5483 12.0563C13.5453 12.0579 13.5424 12.0596 13.5394 12.0612C13.5372 12.0623 13.5351 12.0635 13.5329 12.0647C13.4965 12.0844 13.4603 12.1045 13.4242 12.125C13.4218 12.1263 13.4194 12.1277 13.4171 12.1291C13.2701 12.2127 13.1256 12.3022 12.9857 12.3963C12.6994 12.5891 12.6234 12.9775 12.8161 13.2638C12.9368 13.4432 13.1342 13.5399 13.3352 13.5399C13.4552 13.5399 13.5766 13.5054 13.6836 13.4334C13.8379 13.3296 13.9991 13.2326 14.1629 13.1452C14.9546 12.7227 15.846 12.5 16.75 12.5C19.7827 12.5 22.25 14.9673 22.25 18V20.3042L20.8116 18.9C20.5646 18.6588 20.1689 18.6636 19.9278 18.9106C19.6867 19.1576 19.6915 19.5533 19.9385 19.7944L21.5546 21.3722C21.9178 21.7267 22.3933 21.9037 22.8687 21.9037C23.3486 21.9037 23.8284 21.7233 24.1924 21.3629L25.8148 19.7567C26.0601 19.5138 26.062 19.118 25.8192 18.8728Z" fill="white"/>
<path d="M10.6739 17.0016C10.3286 16.9805 10.0332 17.2433 10.0124 17.5878C10.0042 17.7241 10 17.8628 10 18.0002C10 18.0919 10.0019 18.1844 10.0055 18.2751C10.0191 18.6115 10.296 18.8751 10.6296 18.8751C10.6381 18.8751 10.6465 18.8749 10.6551 18.8746C11 18.8607 11.2684 18.5699 11.2546 18.225C11.2516 18.1507 11.25 18.0749 11.25 18C11.25 17.8878 11.2534 17.7744 11.2601 17.6631C11.2809 17.3186 11.0185 17.0224 10.6739 17.0016Z" fill="white"/>
<path d="M12.0623 20.8784C11.9645 20.7195 11.874 20.5541 11.7932 20.3867C11.6433 20.0758 11.2697 19.9452 10.9588 20.0952C10.6479 20.2452 10.5174 20.6188 10.6674 20.9297C10.7666 21.1354 10.8777 21.3386 10.9978 21.5336C11.1158 21.7254 11.3208 21.8311 11.5306 21.8311C11.6424 21.8311 11.7555 21.8011 11.8576 21.7382C12.1516 21.5573 12.2432 21.1723 12.0623 20.8784Z" fill="white"/>
<path d="M16.75 23.5C16.563 23.5 16.3743 23.4905 16.1893 23.4718C15.8463 23.4369 15.5394 23.6873 15.5047 24.0308C15.47 24.3743 15.7202 24.6808 16.0637 24.7155C16.2902 24.7384 16.5212 24.75 16.7501 24.75C17.0952 24.75 17.3751 24.4702 17.3751 24.125C17.3751 23.7798 17.0952 23.5 16.75 23.5Z" fill="white"/>
<path d="M14.0652 22.8014C13.9028 22.7104 13.743 22.6098 13.5905 22.5026C13.3081 22.304 12.9183 22.3719 12.7198 22.6543C12.5212 22.9367 12.5892 23.3265 12.8715 23.5251C13.0586 23.6567 13.2546 23.78 13.454 23.8918C13.5507 23.946 13.6556 23.9717 13.7591 23.9717C13.9779 23.9717 14.1903 23.8566 14.3049 23.6522C14.4736 23.3512 14.3664 22.9702 14.0652 22.8014Z" fill="white"/>
<path d="M11.9353 14.1623C11.6452 13.9755 11.2583 14.0591 11.0714 14.3494C10.9474 14.5419 10.832 14.7429 10.7286 14.9465C10.5722 15.2543 10.695 15.6305 11.0027 15.7868C11.0934 15.8329 11.1901 15.8547 11.2853 15.8547C11.5131 15.8547 11.7328 15.7297 11.843 15.5127C11.9273 15.3468 12.0212 15.1831 12.1223 15.0262C12.3092 14.736 12.2255 14.3492 11.9353 14.1623Z" fill="white"/>
</g>
</g>
<defs>
<filter id="filter0_d_40_1901" x="6" y="8.25" width="24" height="21.5" filterUnits="userSpaceOnUse" color-interpolation-filters="sRGB">
<feFlood flood-opacity="0" result="BackgroundImageFix"/>
<feColorMatrix in="SourceAlpha" type="matrix" values="0 0 0 0 0 0 0 0 0 0 0 0 0 0 0 0 0 0 127 0" result="hardAlpha"/>
<feOffset dy="1"/>
<feGaussianBlur stdDeviation="2"/>
<feComposite in2="hardAlpha" operator="out"/>
<feColorMatrix type="matrix" values="0 0 0 0 0.484505 0 0 0 0 0.470208 0 0 0 0 0.508333 0 0 0 0.75 0"/>
<feBlend mode="normal" in2="BackgroundImageFix" result="effect1_dropShadow_40_1901"/>
<feBlend mode="normal" in="SourceGraphic" in2="effect1_dropShadow_40_1901" result="shape"/>
</filter>
<linearGradient id="paint0_linear_40_1901" x1="26.9859" y1="-0.517968" x2="6.4633" y2="34.832" gradientUnits="userSpaceOnUse">
<stop stop-color="#BEBBC3"/>
<stop offset="1" stop-color="#A39EA9"/>
<stop offset="1" stop-color="#A39EA9"/>
</linearGradient>
<clipPath id="clip0_40_1901">
<rect width="16" height="16" fill="white" transform="translate(10 10)"/>
</clipPath>
</defs>
</svg>
