<svg width="16" height="16" viewBox="0 0 16 16" fill="none" xmlns="http://www.w3.org/2000/svg">
<path d="M4.89682 7.68018C4.66477 7.68018 4.43943 7.55946 4.31675 7.34351C4.13474 7.02418 4.2468 6.61683 4.56614 6.43409L10.752 2.90748C11.0714 2.72413 11.4787 2.83619 11.6615 3.15675C11.8435 3.47608 11.7314 3.88343 11.4121 4.06617L5.22605 7.59278C5.12204 7.65211 5.00876 7.68018 4.89682 7.68018Z" fill="#4CAF50"/>
<path d="M11.0821 13.1801C10.9701 13.1801 10.8568 13.152 10.7528 13.0927L4.56678 9.56604C4.24744 9.38403 4.1355 8.97668 4.31751 8.65662C4.49878 8.33667 4.90674 8.224 5.22681 8.40735L11.4128 11.934C11.7322 12.116 11.8441 12.5233 11.6621 12.8434C11.5388 13.0593 11.3135 13.1801 11.0821 13.1801Z" fill="#4CAF50"/>
<path d="M15.323 2.66663C15.323 4.1394 14.1292 5.33337 12.6564 5.33337C11.1836 5.33337 9.98975 4.1394 9.98975 2.66663C9.98975 1.19385 11.1836 0 12.6564 0C14.1292 0 15.323 1.19385 15.323 2.66663Z" fill="#4CAF50"/>
<path d="M15.323 13.3333C15.323 14.806 14.1292 15.9999 12.6564 15.9999C11.1836 15.9999 9.98975 14.806 9.98975 13.3333C9.98975 11.8605 11.1836 10.6665 12.6564 10.6665C14.1292 10.6665 15.323 11.8605 15.323 13.3333Z" fill="#4CAF50"/>
<path d="M5.98962 8.00012C5.98962 9.4729 4.79565 10.6667 3.32288 10.6667C1.8501 10.6667 0.65625 9.4729 0.65625 8.00012C0.65625 6.52734 1.8501 5.3335 3.32288 5.3335C4.79565 5.3335 5.98962 6.52734 5.98962 8.00012Z" fill="#4CAF50"/>
</svg>
