<svg width="16" height="16" viewBox="0 0 16 16" fill="none" xmlns="http://www.w3.org/2000/svg">
<g clip-path="url(#clip0_29_1537)">
<path d="M10.1666 3H5.83325C5.55725 3 5.33325 2.776 5.33325 2.5V1.16667C5.33325 0.523333 5.85658 0 6.49992 0H9.49991C10.1432 0 10.6666 0.523333 10.6666 1.16667V2.5C10.6666 2.776 10.4426 3 10.1666 3Z" fill="#90A4AE"/>
<path d="M12.1667 16.0001H3.83333C2.822 16.0001 2 15.1781 2 14.1667V5.16675C2 4.89075 2.224 4.66675 2.5 4.66675H13.5C13.776 4.66675 14 4.89075 14 5.16675V14.1667C14 15.1781 13.178 16.0001 12.1667 16.0001Z" fill="#90A4AE"/>
<path d="M14.8332 5.66666H1.1665C0.890504 5.66666 0.666504 5.44266 0.666504 5.16666V3.83333C0.666504 2.822 1.4885 2 2.49984 2H13.4998C14.5112 2 15.3332 2.822 15.3332 3.83333V5.16666C15.3332 5.44266 15.1092 5.66666 14.8332 5.66666Z" fill="#607D8B"/>
<path d="M5.16666 13.5001C4.798 13.5001 4.5 13.2014 4.5 12.8334V7.83341C4.5 7.46541 4.798 7.16675 5.16666 7.16675C5.53533 7.16675 5.83333 7.46541 5.83333 7.83341V12.8334C5.83333 13.2014 5.53533 13.5001 5.16666 13.5001Z" fill="white"/>
<path d="M7.99992 13.5001C7.63125 13.5001 7.33325 13.2014 7.33325 12.8334V7.83341C7.33325 7.46541 7.63125 7.16675 7.99992 7.16675C8.36859 7.16675 8.6666 7.46541 8.6666 7.83341V12.8334C8.6666 13.2014 8.36859 13.5001 7.99992 13.5001Z" fill="white"/>
<path d="M10.8334 13.5001C10.4648 13.5001 10.1667 13.2014 10.1667 12.8334V7.83341C10.1667 7.46541 10.4648 7.16675 10.8334 7.16675C11.2021 7.16675 11.5001 7.46541 11.5001 7.83341V12.8334C11.5001 13.2014 11.2021 13.5001 10.8334 13.5001Z" fill="white"/>
</g>
<defs>
<clipPath id="clip0_29_1537">
<rect width="16" height="16" fill="white"/>
</clipPath>
</defs>
</svg>
