<svg width="36" height="36" viewBox="0 0 36 36" fill="none" xmlns="http://www.w3.org/2000/svg">
<rect width="36" height="36" rx="12" fill="url(#paint0_linear_40_1904)"/>
<g filter="url(#filter0_d_40_1904)">
<path d="M20.625 13.8438H17.9688C17.6236 13.8438 17.3438 14.1236 17.3438 14.4688C17.3438 14.8139 17.6236 15.0938 17.9688 15.0938H20.0536L16.2575 18.8899C15.8809 18.6624 15.4399 18.5312 14.9688 18.5312H12.5C11.1215 18.5312 10 19.6528 10 21.0312V23.5C10 24.8785 11.1215 26 12.5 26H14.9688C16.3472 26 17.4688 24.8785 17.4688 23.5V21.0312C17.4688 20.5764 17.3461 20.15 17.133 19.7822L20.9375 15.9777V18.0625C20.9375 18.4077 21.2173 18.6875 21.5625 18.6875C21.9077 18.6875 22.1875 18.4077 22.1875 18.0625V15.4062C22.1875 14.5447 21.4866 13.8438 20.625 13.8438ZM16.2188 23.5C16.2188 24.1892 15.658 24.75 14.9688 24.75H12.5C11.8108 24.75 11.25 24.1892 11.25 23.5V21.0312C11.25 20.342 11.8108 19.7812 12.5 19.7812H14.9688C15.658 19.7812 16.2188 20.342 16.2188 21.0312V23.5ZM16.3125 10.625C16.3125 10.2798 16.5923 10 16.9375 10C17.2827 10 17.5625 10.2798 17.5625 10.625C17.5625 10.9702 17.2827 11.25 16.9375 11.25C16.5923 11.25 16.3125 10.9702 16.3125 10.625ZM14 10.625C14 10.2798 14.2798 10 14.625 10C14.9702 10 15.25 10.2798 15.25 10.625C15.25 10.9702 14.9702 11.25 14.625 11.25C14.2798 11.25 14 10.9702 14 10.625ZM11.6875 10.625C11.6875 10.2798 11.9673 10 12.3125 10C12.6577 10 12.9375 10.2798 12.9375 10.625C12.9375 10.9702 12.6577 11.25 12.3125 11.25C11.9673 11.25 11.6875 10.9702 11.6875 10.625ZM10 12.125C10 11.7798 10.2798 11.5 10.625 11.5C10.9702 11.5 11.25 11.7798 11.25 12.125C11.25 12.4702 10.9702 12.75 10.625 12.75C10.2798 12.75 10 12.4702 10 12.125ZM26 23.6875C26 24.0327 25.7202 24.3125 25.375 24.3125C25.0298 24.3125 24.75 24.0327 24.75 23.6875C24.75 23.3423 25.0298 23.0625 25.375 23.0625C25.7202 23.0625 26 23.3423 26 23.6875ZM24.5 25.375C24.5 25.7202 24.2202 26 23.875 26C23.5298 26 23.25 25.7202 23.25 25.375C23.25 25.0298 23.5298 24.75 23.875 24.75C24.2202 24.75 24.5 25.0298 24.5 25.375ZM24.75 12.3125C24.75 11.9673 25.0298 11.6875 25.375 11.6875C25.7202 11.6875 26 11.9673 26 12.3125C26 12.6577 25.7202 12.9375 25.375 12.9375C25.0298 12.9375 24.75 12.6577 24.75 12.3125ZM18.625 10.625C18.625 10.2798 18.9048 10 19.25 10C19.5952 10 19.875 10.2798 19.875 10.625C19.875 10.9702 19.5952 11.25 19.25 11.25C18.9048 11.25 18.625 10.9702 18.625 10.625ZM22.1875 10.625C22.1875 10.9702 21.9077 11.25 21.5625 11.25C21.2173 11.25 20.9375 10.9702 20.9375 10.625C20.9375 10.2798 21.2173 10 21.5625 10C21.9077 10 22.1875 10.2798 22.1875 10.625ZM19.875 25.375C19.875 25.7202 19.5952 26 19.25 26C18.9048 26 18.625 25.7202 18.625 25.375C18.625 25.0298 18.9048 24.75 19.25 24.75C19.5952 24.75 19.875 25.0298 19.875 25.375ZM22.1875 25.375C22.1875 25.7202 21.9077 26 21.5625 26C21.2173 26 20.9375 25.7202 20.9375 25.375C20.9375 25.0298 21.2173 24.75 21.5625 24.75C21.9077 24.75 22.1875 25.0298 22.1875 25.375ZM26 16.8438C26 17.1889 25.7202 17.4688 25.375 17.4688C25.0298 17.4688 24.75 17.1889 24.75 16.8438C24.75 16.4986 25.0298 16.2188 25.375 16.2188C25.7202 16.2188 26 16.4986 26 16.8438ZM26 14.5312C26 14.8764 25.7202 15.1562 25.375 15.1562C25.0298 15.1562 24.75 14.8764 24.75 14.5312C24.75 14.1861 25.0298 13.9062 25.375 13.9062C25.7202 13.9062 26 14.1861 26 14.5312ZM10 14.5312C10 14.1861 10.2798 13.9062 10.625 13.9062C10.9702 13.9062 11.25 14.1861 11.25 14.5312C11.25 14.8764 10.9702 15.1562 10.625 15.1562C10.2798 15.1562 10 14.8764 10 14.5312ZM26 19.1562C26 19.5014 25.7202 19.7812 25.375 19.7812C25.0298 19.7812 24.75 19.5014 24.75 19.1562C24.75 18.8111 25.0298 18.5312 25.375 18.5312C25.7202 18.5312 26 18.8111 26 19.1562ZM26 21.4688C26 21.8139 25.7202 22.0938 25.375 22.0938C25.0298 22.0938 24.75 21.8139 24.75 21.4688C24.75 21.1236 25.0298 20.8438 25.375 20.8438C25.7202 20.8438 26 21.1236 26 21.4688ZM10 16.8438C10 16.4986 10.2798 16.2188 10.625 16.2188C10.9702 16.2188 11.25 16.4986 11.25 16.8438C11.25 17.1889 10.9702 17.4688 10.625 17.4688C10.2798 17.4688 10 17.1889 10 16.8438ZM24.5 10.625C24.5 10.9702 24.2202 11.25 23.875 11.25C23.5298 11.25 23.25 10.9702 23.25 10.625C23.25 10.2798 23.5298 10 23.875 10C24.2202 10 24.5 10.2798 24.5 10.625Z" fill="white"/>
</g>
<defs>
<filter id="filter0_d_40_1904" x="6" y="7" width="24" height="24" filterUnits="userSpaceOnUse" color-interpolation-filters="sRGB">
<feFlood flood-opacity="0" result="BackgroundImageFix"/>
<feColorMatrix in="SourceAlpha" type="matrix" values="0 0 0 0 0 0 0 0 0 0 0 0 0 0 0 0 0 0 127 0" result="hardAlpha"/>
<feOffset dy="1"/>
<feGaussianBlur stdDeviation="2"/>
<feComposite in2="hardAlpha" operator="out"/>
<feColorMatrix type="matrix" values="0 0 0 0 0.484505 0 0 0 0 0.470208 0 0 0 0 0.508333 0 0 0 0.75 0"/>
<feBlend mode="normal" in2="BackgroundImageFix" result="effect1_dropShadow_40_1904"/>
<feBlend mode="normal" in="SourceGraphic" in2="effect1_dropShadow_40_1904" result="shape"/>
</filter>
<linearGradient id="paint0_linear_40_1904" x1="26.9859" y1="-0.517968" x2="6.4633" y2="34.832" gradientUnits="userSpaceOnUse">
<stop stop-color="#BEBBC3"/>
<stop offset="1" stop-color="#A39EA9"/>
<stop offset="1" stop-color="#A39EA9"/>
</linearGradient>
</defs>
</svg>
