<svg width="36" height="36" viewBox="0 0 36 36" fill="none" xmlns="http://www.w3.org/2000/svg">
<rect width="36" height="36" rx="12" fill="url(#paint0_linear_40_1903)"/>
<g filter="url(#filter0_d_40_1903)">
<path d="M21.904 15.1418C20.4853 15.1418 19.1309 14.3144 17.8211 13.5143C16.616 12.7781 15.3698 12.0168 14.215 12.0168C11.9957 12.0168 11.1656 13.2686 11.1578 13.2812C10.9773 13.5754 10.5925 13.6675 10.2982 13.487C10.004 13.3065 9.91185 12.9217 10.0924 12.6274C10.139 12.5515 11.2679 10.7668 14.215 10.7668C15.7214 10.7668 17.1201 11.6213 18.4727 12.4476C19.6885 13.1903 20.8369 13.8918 21.904 13.8918C22.8151 13.8918 23.5949 13.6674 24.2219 13.2249C24.6508 12.9222 24.8402 12.6308 24.8419 12.6279C25.0222 12.3335 25.4069 12.241 25.7013 12.4213C25.9957 12.6016 26.0882 12.9863 25.9079 13.2807C25.8614 13.3567 24.7358 15.1418 21.904 15.1418ZM25.9079 16.7494C26.0882 16.455 25.9957 16.0703 25.7013 15.89C25.4069 15.7097 25.0222 15.8023 24.8419 16.0967C24.8402 16.0995 24.6508 16.3909 24.2219 16.6937C23.5949 17.1361 22.8151 17.3605 21.904 17.3605C20.8369 17.3605 19.6885 16.659 18.4727 15.9163C17.1201 15.09 15.7214 14.2356 14.215 14.2356C11.2679 14.2356 10.139 16.0202 10.0924 16.0962C9.91185 16.3904 10.004 16.7752 10.2982 16.9557C10.5925 17.1362 10.9773 17.0441 11.1578 16.7499C11.1656 16.7373 11.9957 15.4855 14.215 15.4855C15.3698 15.4855 16.616 16.2468 17.8211 16.983C19.1309 17.7831 20.4853 18.6395 21.904 18.6395C24.7358 18.6395 25.8614 16.8254 25.9079 16.7494ZM25.9079 20.1868C26.0882 19.8925 25.9957 19.5077 25.7013 19.3275C25.4069 19.1472 25.0222 19.2397 24.8419 19.5341C24.8402 19.5369 24.6508 19.8284 24.2219 20.1311C23.5949 20.5736 22.8151 20.798 21.904 20.798C20.8369 20.798 19.6885 20.0965 18.4727 19.3538C17.1201 18.5275 15.7214 17.673 14.215 17.673C11.2679 17.673 10.139 19.4576 10.0924 19.5336C9.91185 19.8278 10.004 20.2126 10.2982 20.3932C10.5925 20.5737 10.9773 20.4816 11.1578 20.1874C11.1656 20.1747 11.9957 18.923 14.215 18.923C15.3698 18.923 16.616 19.6843 17.8211 20.4205C19.1309 21.2206 20.4853 22.077 21.904 22.077C24.7358 22.077 25.8614 20.2629 25.9079 20.1868ZM20.9555 24.7603C21.0833 24.4397 20.9271 24.0761 20.6064 23.9483C19.9169 23.6734 19.2154 23.2449 18.4727 22.7912C17.1201 21.9649 15.7214 21.1105 14.215 21.1105C11.2679 21.1105 10.139 22.8951 10.0924 22.9711C9.91185 23.2653 10.004 23.6501 10.2982 23.8307C10.5925 24.0111 10.9773 23.919 11.1578 23.6248C11.1656 23.6122 11.9957 22.3605 14.215 22.3605C15.3698 22.3605 16.616 23.1217 17.8211 23.8579C18.5755 24.3188 19.3556 24.7953 20.1435 25.1095C20.2194 25.1397 20.2977 25.1541 20.3748 25.154C20.6231 25.154 20.858 25.0051 20.9555 24.7603ZM25.9999 23.2957C25.9999 22.9505 25.7201 22.6707 25.3749 22.6707C25.146 22.6707 24.9463 22.7942 24.8375 22.9779C24.7727 23.0728 24.3275 23.6804 23.3317 24.0159C23.0045 24.1261 22.8287 24.4806 22.9389 24.8077C23.0268 25.0687 23.2702 25.2334 23.5311 25.2334C23.5973 25.2334 23.6646 25.2228 23.7307 25.2005C25.2405 24.6918 25.8814 23.6676 25.9079 23.6243L25.9064 23.6233C25.9653 23.528 25.9999 23.416 25.9999 23.2957Z" fill="white"/>
</g>
<defs>
<filter id="filter0_d_40_1903" x="6" y="7.76685" width="24" height="22.4666" filterUnits="userSpaceOnUse" color-interpolation-filters="sRGB">
<feFlood flood-opacity="0" result="BackgroundImageFix"/>
<feColorMatrix in="SourceAlpha" type="matrix" values="0 0 0 0 0 0 0 0 0 0 0 0 0 0 0 0 0 0 127 0" result="hardAlpha"/>
<feOffset dy="1"/>
<feGaussianBlur stdDeviation="2"/>
<feComposite in2="hardAlpha" operator="out"/>
<feColorMatrix type="matrix" values="0 0 0 0 0.484505 0 0 0 0 0.470208 0 0 0 0 0.508333 0 0 0 0.75 0"/>
<feBlend mode="normal" in2="BackgroundImageFix" result="effect1_dropShadow_40_1903"/>
<feBlend mode="normal" in="SourceGraphic" in2="effect1_dropShadow_40_1903" result="shape"/>
</filter>
<linearGradient id="paint0_linear_40_1903" x1="26.9859" y1="-0.517968" x2="6.4633" y2="34.832" gradientUnits="userSpaceOnUse">
<stop stop-color="#BEBBC3"/>
<stop offset="1" stop-color="#A39EA9"/>
<stop offset="1" stop-color="#A39EA9"/>
</linearGradient>
</defs>
</svg>
