<svg width="20" height="20" viewBox="0 0 20 20" fill="none" xmlns="http://www.w3.org/2000/svg">
<path d="M17.6562 0.78125H2.34375C1.05133 0.78125 0 1.83258 0 3.125V16.0938C0 17.8169 1.40182 19.2188 3.125 19.2188H16.875C18.5982 19.2188 20 17.8169 20 16.0938C20 15.6622 19.6503 15.3125 19.2188 15.3125C18.7872 15.3125 18.4375 15.6622 18.4375 16.0938C18.4375 16.9553 17.7365 17.6562 16.875 17.6562H3.125C2.26349 17.6562 1.5625 16.9553 1.5625 16.0938V5.50781H18.4375V12.1875C18.4375 12.619 18.7872 12.9688 19.2188 12.9688C19.6503 12.9688 20 12.619 20 12.1875V3.125C20 1.83258 18.9487 0.78125 17.6562 0.78125ZM14.4922 2.34375C14.9229 2.34375 15.2734 2.69424 15.2734 3.125C15.2734 3.55576 14.9229 3.90625 14.4922 3.90625C14.0614 3.90625 13.7109 3.55576 13.7109 3.125C13.7109 2.69424 14.0614 2.34375 14.4922 2.34375ZM18.3984 3.125C18.3984 3.55576 18.0479 3.90625 17.6172 3.90625C17.1864 3.90625 16.8359 3.55576 16.8359 3.125C16.8359 2.69424 17.1864 2.34375 17.6172 2.34375C18.0479 2.34375 18.3984 2.69424 18.3984 3.125ZM1.5625 3.125C1.5625 2.69424 1.91299 2.34375 2.34375 2.34375H12.2829C12.196 2.58835 12.1484 2.8511 12.1484 3.125C12.1484 3.41354 12.2011 3.68988 12.2969 3.94531H1.5625V3.125ZM5.3125 11.6406C5.3125 14.2253 7.41531 16.3281 10 16.3281C12.5847 16.3281 14.6875 14.2253 14.6875 11.6406C14.6875 9.05594 12.5847 6.95312 10 6.95312C7.41531 6.95312 5.3125 9.05594 5.3125 11.6406ZM9.39514 12.4219H10.6049C10.5084 13.6304 10.2037 14.4035 10 14.6838C9.7963 14.4035 9.49158 13.6304 9.39514 12.4219ZM9.39514 10.8594C9.49158 9.65088 9.7963 8.87772 10 8.59741C10.2037 8.87772 10.5084 9.65088 10.6049 10.8594H9.39514ZM8.09311 9.16733C7.96021 9.67743 7.87048 10.2525 7.82883 10.8594H6.97388C7.14996 10.1776 7.55142 9.58603 8.09311 9.16733ZM6.97388 12.4219H7.82883C7.87033 13.0287 7.96021 13.6038 8.09311 14.1139C7.55142 13.6952 7.14996 13.1036 6.97388 12.4219ZM11.9069 14.1139C12.0398 13.6038 12.1295 13.0287 12.1712 12.4219H13.0261C12.85 13.1036 12.4486 13.6952 11.9069 14.1139ZM13.0261 10.8594H12.1712C12.1297 10.2525 12.0398 9.67743 11.9069 9.16733C12.4486 9.58603 12.85 10.1776 13.0261 10.8594Z" fill="#231873"/>
</svg>
